<svg version="1.1" xmlns="http://www.w3.org/2000/svg" xmlns:xlink="http://www.w3.org/1999/xlink" x="0px" y="0px"
	 width="130.957px" height="150.987px" viewBox="0 0 130.957 150.987" enable-background="new 0 0 130.957 150.987"
	 xml:space="preserve">
<g id="Layer_1">
</g>
<g id="Shield-White">
	<path fill="#FFFFFF" d="M130.479,0.477l-0.055,54.611c-0.025,28.552-9.914,74.776-64.946,95.389
		C10.443,129.864,0.559,83.64,0.532,55.088L0.478,0.477H130.479L130.479,0.477z"/>
</g>
<g id="Shield-PMS_280">
	<g>
		<path fill="#074078" d="M118.588,61.391l0.005-0.009c-0.072,0.066-0.146,0.117-0.21,0.138c0.65,0.578-0.323,2.747-1.937,2.7
			l-0.318,1.007h0.002c1.116,0.233,1.967,0.504,2.514,0.797l-0.016-0.046c0,0,2.588-3.638,2.008-4.302
			C120.349,61.349,119.612,61.144,118.588,61.391z"/>
		<path fill="#074078" d="M94.044,64.182c-1.564,0.22-2.594-1.642-2.264-2.444l-0.076,0.021c-1.803-0.574-2.049-0.41-2.865-0.083
			c-0.822,0.329,2.006,4.222,2.006,4.222l-0.016,0.044c0.706-0.336,1.816-0.639,3.256-0.89l0.027-0.004l-0.25-0.79L94.044,64.182z"
			/>
		<path fill="#003366" d="M94.085,65.052c-1.439,0.251-2.55,0.554-3.256,0.89l0.016-0.044c0,0-2.828-3.893-2.006-4.222
			c0.816-0.328,1.062-0.492,2.865,0.083l0.076-0.021c-0.33,0.802,0.699,2.664,2.264,2.444l-0.182,0.076l0.25,0.79L94.085,65.052z
			 M118.628,65.978l0.016,0.046c-0.547-0.292-1.397-0.563-2.514-0.797h-0.002l0.318-1.007c1.613,0.047,2.587-2.122,1.937-2.7
			c0.064-0.021,0.138-0.071,0.21-0.138l-0.005,0.009c1.024-0.247,1.761-0.042,2.048,0.285
			C121.216,62.34,118.628,65.978,118.628,65.978z"/>
	</g>
	<g>
		<path fill-rule="evenodd" clip-rule="evenodd" fill="#274275" d="M64.392,115.154c-0.043-0.01-0.091-0.021-0.132-0.032l0.12,0.044
			L64.392,115.154z"/>
		<path fill-rule="evenodd" clip-rule="evenodd" fill="#003366" d="M65.438,85.772l-41.143,36.88l-0.069,0.322
			c0.375,0.43,0.757,0.854,1.144,1.276v0.001c4.251,4.654,9.196,9.066,14.932,13.111c7.108,5.014,15.436,9.467,25.177,13.114
			c9.667-3.621,17.87-8.089,24.874-13.112h0.005c5.666-4.059,10.548-8.484,14.786-13.113h0.003c0.486-0.529,0.962-1.062,1.433-1.6
			L65.438,85.772z M92.567,116.728c-1.185,1.385-1.715,1.991-4.096,1.991c1.692,1.618,1.551,4.075,1.551,4.075
			c-0.176,6.272-6.474,9.457-17.904,10.678c-0.862,0.247-1.635,0.432-2.584,0.57c0,1.701,1.793,0.861,1.81,2.125l2.326,2.109
			c1.277,0.471,1.771,0.758,1.771,1.407c0,1.522-4.189,2.755-9.354,2.755c-5.167,0-9.355-1.232-9.355-2.755
			c0-0.649,0.703-1.452,2.042-1.718l1.888-1.682c-0.138-1.406,1.938-0.586,1.938-2.285c-1.061-0.157-2.105-0.333-3.058-0.619
			c0,0-0.132-0.007-0.375-0.037c-1.674-0.211-8.564-1.479-12.897-8.256c-2.435-3.811-3.432-4.045-3.432-4.045
			s-1.937-1.104-1.937-2.256c0-0.53,1.07-0.982,2.606-1.192c0.362-0.114,0.828-0.198,1.356-0.229v-0.707
			c-0.33,0.004-0.591,0.029-0.959-0.071c-1.064-0.293-1.851-0.624-2.056-1.946c-0.238-1.534,1.304-3.139,2.193-4.518
			c0.753-1.168,0.712-1.787,1.096-2.957c1.154-0.43,0.345,1.789,1.098,2.957c0.888,1.379,2.432,2.983,2.192,4.518
			c-0.205,1.322-0.991,1.653-2.056,1.946c-0.316,0.088-0.554,0.077-0.824,0.071v0.696c0.612,0.013,1.16,0.093,1.585,0.212
			c1.637,0.198,2.789,0.668,2.789,1.221c0,0.08,0.001,0.127-0.018,0.172c-0.54,4.105,2.841,4.313,2.841,4.313
			c1.562-2.642,5.281-4.673,9.963-5.337c0-0.546,0.583-1.234,1.48-1.672l0.069-1.142c-1.351-0.357-2.103-1.089-2.103-2.257
			c0-1.129,0.879-2.108,2.166-2.588c0.09-0.172,0.254-0.436,0.811-0.693c0-0.609,0.537-2.436,0.953-2.582
			c0.441,0.146,0.885,1.943,0.885,2.553c0.447,0.1,0.662,0.377,0.834,0.687c1.341,0.468,2.266,1.465,2.266,2.624
			c0,1.105-0.857,1.896-2.105,2.281l0.002,0.005l0.016,1.104c0.923,0.439,1.533,1.141,1.533,1.691
			c6.137,0.901,10.684,4.162,10.684,8.05c0,0.335-0.047,0.694-0.113,1.02c-0.008-0.007,1.49,0.733,2.894,0.815
			c2.851,0,4.856-1.785,4.856-5.33c0-2.404-1.522-3.782-3.515-3.782c-2.075,0-3.054,1.647-2.935,3.284
			c0.076,1.052,0.777,1.708,1.799,1.641c0.412-0.026,0.967-0.39,1.08-0.967c0.158-0.807-0.19-1.254-0.996-1.672
			c0,0-0.053-0.558,1.08-0.555c0.934,0.003,1.715,0.953,1.715,2.49c0,1.913-1.361,2.838-2.851,2.873
			c-2.109,0.049-3.931-1.621-3.931-4.162c0-3.074,2.113-5.514,5.092-5.335c0,0,4.789,0.825,6.67,0.087
			C92.903,115.678,93.305,115.869,92.567,116.728z"/>
	</g>
	<g>
		<path fill="#003366" d="M15.324,64.182c-1.565,0.22-2.594-1.642-2.265-2.444l-0.074,0.021c-1.804-0.574-2.049-0.41-2.868-0.083
			c-0.82,0.329,2.007,4.222,2.007,4.222l-0.015,0.044c0.705-0.336,1.815-0.639,3.255-0.89l0.027-0.004l-0.248-0.79L15.324,64.182z"
			/>
		<path fill="#003366" d="M39.867,61.391l0.005-0.009c-0.072,0.066-0.144,0.117-0.208,0.138c0.65,0.578-0.325,2.747-1.937,2.7
			l-0.318,1.007h0.001c1.114,0.233,1.968,0.504,2.514,0.797l-0.016-0.046c0,0,2.588-3.638,2.008-4.302
			C41.629,61.349,40.891,61.144,39.867,61.391z"/>
		<path fill="#003366" d="M130.411,37.296c-0.541,2.162-2.619,3.994-5.494,5.022h-0.006c-1.577,0.563-3.393,0.886-5.327,0.886
			c-1.929,0-3.743-0.319-5.315-0.884h-0.008c-2.914-1.038-5.012-2.903-5.523-5.1c-0.545,2.18-2.643,4.056-5.545,5.1v0.003
			c-1.559,0.559-3.348,0.881-5.254,0.881c-1.93,0-3.743-0.319-5.316-0.884h-0.008c-2.912-1.038-5.011-2.903-5.521-5.1
			c-0.547,2.18-2.643,4.056-5.548,5.1v0.003c-1.558,0.559-3.347,0.881-5.255,0.881c-1.928,0-3.74-0.319-5.314-0.884h-0.007
			c-2.915-1.038-5.013-2.903-5.524-5.1c-0.545,2.18-2.643,4.056-5.544,5.1v0.003c-1.56,0.559-3.35,0.881-5.254,0.881
			c-1.929,0-3.743-0.319-5.317-0.884h-0.006c-2.914-1.038-5.012-2.903-5.522-5.1c-0.547,2.18-2.645,4.056-5.548,5.1v0.003
			c-1.557,0.559-3.347,0.881-5.253,0.881c-1.956,0-3.79-0.319-5.376-0.884c-2.874-1.019-4.935-2.842-5.442-5.024
			c-0.541,2.162-2.619,3.994-5.492,5.022h-0.007c-1.578,0.563-3.394,0.886-5.328,0.886c-1.93,0-3.742-0.319-5.317-0.884H6.03
			c-2.914-1.038-5.012-2.903-5.522-5.1l0.001,5.1v2.622l0.002,2.625l0,2.623v1.31l0,0.983v0.984l0.001,0.985v0.603
			c0,0.125,0.001,0.251,0.001,0.379c0.001,0.433,0.005,0.869,0.012,1.312c0.007,0.432,0.016,0.869,0.027,1.312
			c0.012,0.434,0.026,0.87,0.042,1.312c0.017,0.431,0.035,0.867,0.057,1.31c0.031,0.65,0.069,1.308,0.112,1.967
			c0.036,0.542,0.075,1.09,0.119,1.64c0.043,0.542,0.09,1.088,0.142,1.638c0.316,3.378,0.794,6.892,1.468,10.491
			c1.905,10.152,5.387,20.996,11.294,31.452l36.027-31.452l12.016-10.491l1.877-1.638l1.714-1.495l1.723,1.495l1.888,1.638
			l12.088,10.491l36.264,31.471c5.883-10.438,9.285-21.305,11.126-31.471c0.651-3.599,1.108-7.113,1.412-10.491
			c0.048-0.549,0.094-1.095,0.134-1.638c0.043-0.55,0.08-1.098,0.113-1.64h-0.007l0.007-0.002c0.043-0.66,0.076-1.313,0.107-1.962
			c0.021-0.443,0.039-0.881,0.053-1.312h-0.01l0.01-0.003c0.016-0.438,0.029-0.873,0.041-1.308c0.01-0.441,0.021-0.88,0.026-1.312
			c0.007-0.441,0.011-0.879,0.012-1.312h-0.003l0.003-0.001c0.001-0.127,0.001-0.252,0.001-0.378v-0.603h-0.006l0.006-0.001v-0.984
			l0.004-0.984V51.5l0.002-1.31l0.004-2.623l0.002-2.623l0.002-2.624l0.004-4.605L130.411,37.296z M41.25,66.286
			c0.195,0.154,0.297,0.312,0.297,0.473c-0.778,8.81-2.76,14.437-4.508,15.737c-1.599,1.186-3.564,2.375-11.023,2.375
			c-8.373,0-10.06-1.822-11.474-3.688c-1.024-1.353-3.62-5.902-4.057-14.467c-0.006-0.133,0.035-0.261,0.123-0.381h0.111
			l-0.07-0.029c0,0-2.253-2.663-2.253-4.793c0-2.062,3.29-1.668,3.876-1.419c-0.131-0.475-0.12-0.916,0.22-1.039l-0.059-0.036
			c-0.536-0.093-1.543-2.191-0.732-2.484l-0.062-0.039c-0.6-0.102-1.81-2.743-0.367-2.518c0.141,0.022,0.267,0.047,0.378,0.073
			l-0.007-0.005c0,0-0.673-0.399-0.651-0.958c0.03-0.875,0.226-1.091,0.361-2.054c0.714,0.602,1.003,0.688,1.522,1.359
			c0.332,0.431,0.025,1.192,0.025,1.192l-0.007,0.083c0.089-0.121,0.192-0.253,0.33-0.406c1.016-1.132,1.549,1.758,1.131,2.236
			l-0.021,0.059c0.805-0.29,1.186,2.039,0.815,2.464l-0.022,0.06c0.792-0.292,1.173,1.956,0.833,2.438
			c0.914,0.023,1.511,2.323-0.075,3.433l0.133-0.055l0.343,1l0.026-0.004c1.101-0.158,2.343-0.29,3.69-0.39l0.091-0.006
			l-0.458-3.069l0.143-0.015c-1.699-0.265-2.313-2.627-1.538-3.064c-0.52-0.319-1.086-2.483-0.215-2.574l-0.058-0.042
			c-0.531-0.212-1.159-2.507-0.267-2.604l-0.055-0.041c-0.593-0.237-1.315-3.091,0.116-2.547c0.194,0.075,0.348,0.145,0.484,0.214
			l-0.061-0.084c0,0-0.609-0.542-0.48-1.085c0.202-0.851,0.443-1.02,0.769-1.929c0.613,0.748,0.892,0.896,1.291,1.669
			c0.255,0.496-0.207,1.172-0.207,1.172l-0.019,0.047c0.102-0.084,0.216-0.173,0.354-0.27c1.257-0.881,1.239,2.066,0.719,2.441
			l-0.044,0.054c0.89-0.125,0.828,2.257,0.365,2.591l-0.042,0.055c0.875-0.124,0.827,2.175,0.383,2.568
			c0.934,0.225,1.097,2.626-0.759,3.351l0.152-0.016l0.465,3.11c1.436-0.081,2.97-0.126,4.568-0.131h0.008l0.005-3.517h0.069
			c-1.747-0.514-2.06-2.892-1.172-3.229c-0.522-0.374-0.85-2.594,0.102-2.588l-0.049-0.047c-0.545-0.272-0.919-2.609,0.047-2.621
			l-0.039-0.047c-0.613-0.306-1.014-3.23,0.468-2.517c0.171,0.084,0.312,0.16,0.437,0.234l-0.009-0.02c0,0-0.589-0.614-0.375-1.138
			c0.334-0.818,0.619-0.955,1.096-1.821c0.566,0.817,0.85,0.997,1.179,1.816c0.21,0.522-0.383,1.138-0.383,1.138l-0.002,0.003
			c0.119-0.069,0.252-0.142,0.413-0.218c1.486-0.722,1.067,2.203,0.452,2.514l-0.05,0.05c0.979-0.009,0.591,2.343,0.042,2.619
			l-0.043,0.047c0.954,0.001,0.595,2.26,0.062,2.601c0.961,0.329,0.865,2.657-1.113,3.225h0.006l-0.005,3.523
			c1.652,0.018,3.328,0.088,4.787,0.19l0.372-3.197l0.042,0.005c-1.721-0.782-1.521-3.099-0.611-3.32
			c-0.442-0.396-0.489-2.689,0.383-2.567l-0.041-0.055c-0.462-0.333-0.525-2.704,0.357-2.593l-0.037-0.053
			c-0.52-0.375-0.538-3.322,0.72-2.441c0.156,0.109,0.28,0.207,0.389,0.301l-0.019-0.078c0,0-0.461-0.676-0.207-1.172
			c0.398-0.773,0.677-0.921,1.292-1.669c0.324,0.909,0.565,1.078,0.768,1.929c0.129,0.543-0.479,1.085-0.479,1.085l-0.033,0.052
			c0.122-0.059,0.257-0.119,0.42-0.182c1.431-0.543,0.709,2.311,0.116,2.547l-0.046,0.041c0.881,0.111,0.254,2.393-0.273,2.604
			l-0.055,0.042c0.867,0.097,0.297,2.266-0.224,2.575c0.765,0.428,0.192,2.75-1.45,3.071l0.012,0.001l-0.381,3.157
			c1.363,0.121,2.67,0.296,3.739,0.478l0.025,0.005l0.381-1.151c-1.486-1.131-0.867-3.37,0.032-3.392
			c-0.339-0.488,0.045-2.741,0.84-2.434l-0.029-0.062c-0.37-0.424,0.009-2.749,0.812-2.466L38.5,55.498
			c-0.417-0.479,0.115-3.368,1.13-2.236c0.116,0.13,0.209,0.245,0.291,0.352l-0.003-0.029c0,0-0.308-0.761,0.024-1.191
			c0.519-0.671,0.809-0.758,1.523-1.359c0.136,0.962,0.33,1.178,0.36,2.054c0.02,0.558-0.652,0.958-0.652,0.958l-0.015,0.019
			c0.122-0.031,0.258-0.061,0.421-0.086c1.443-0.226,0.233,2.416-0.367,2.518l-0.059,0.039c0.808,0.296-0.2,2.392-0.735,2.484
			l-0.06,0.036c0.306,0.109,0.351,0.477,0.262,0.894l0.024-0.046c1.173-0.079,2.827,0.149,2.827,1.609
			c0,2.086-2.146,4.665-2.238,4.773H41.25z M119.97,66.286c0.195,0.154,0.299,0.312,0.299,0.473
			c-0.779,8.81-2.762,14.437-4.511,15.737c-1.597,1.186-3.563,2.375-11.022,2.375c-8.373,0-10.06-1.822-11.475-3.688
			c-1.022-1.353-3.618-5.902-4.055-14.467c-0.009-0.133,0.033-0.261,0.121-0.381h0.111l-0.07-0.029c0,0-2.252-2.663-2.252-4.793
			c0-2.062,3.289-1.668,3.875-1.419c-0.13-0.475-0.119-0.916,0.221-1.039l-0.061-0.036c-0.535-0.093-1.544-2.191-0.73-2.484
			l-0.063-0.039c-0.599-0.102-1.81-2.743-0.368-2.518c0.143,0.022,0.269,0.047,0.379,0.073l-0.006-0.005
			c0,0-0.674-0.399-0.652-0.958c0.031-0.875,0.226-1.091,0.36-2.054c0.716,0.602,1.005,0.688,1.523,1.359
			c0.331,0.431,0.024,1.192,0.024,1.192l-0.008,0.083c0.09-0.121,0.193-0.253,0.33-0.406c1.018-1.132,1.549,1.758,1.131,2.236
			l-0.02,0.059c0.804-0.29,1.185,2.039,0.814,2.464l-0.022,0.06c0.791-0.292,1.172,1.956,0.833,2.438
			c0.914,0.023,1.511,2.323-0.076,3.433l0.134-0.055l0.345,1l0.024-0.004c1.102-0.158,2.344-0.29,3.69-0.39l0.092-0.006
			l-0.459-3.069l0.143-0.015c-1.697-0.265-2.312-2.627-1.537-3.064c-0.521-0.319-1.088-2.483-0.215-2.574l-0.059-0.042
			c-0.53-0.212-1.158-2.507-0.267-2.604l-0.053-0.041c-0.593-0.237-1.315-3.091,0.114-2.547c0.195,0.075,0.349,0.145,0.483,0.214
			l-0.06-0.084c0,0-0.609-0.542-0.48-1.085c0.201-0.851,0.443-1.02,0.769-1.929c0.612,0.748,0.891,0.896,1.289,1.669
			c0.255,0.496-0.205,1.172-0.205,1.172l-0.019,0.047c0.101-0.084,0.215-0.173,0.354-0.27c1.258-0.881,1.238,2.066,0.72,2.441
			l-0.046,0.054c0.891-0.125,0.83,2.257,0.365,2.591l-0.043,0.055c0.875-0.124,0.828,2.175,0.385,2.568
			c0.934,0.225,1.097,2.626-0.761,3.351l0.153-0.016l0.465,3.11c1.436-0.081,2.971-0.126,4.567-0.131h0.009l0.006-3.517h0.068
			c-1.747-0.514-2.059-2.892-1.172-3.229c-0.521-0.374-0.848-2.594,0.102-2.588l-0.049-0.047c-0.546-0.272-0.918-2.609,0.047-2.621
			l-0.037-0.047c-0.614-0.306-1.016-3.23,0.467-2.517c0.172,0.084,0.312,0.16,0.437,0.234l-0.007-0.02c0,0-0.59-0.614-0.377-1.138
			c0.336-0.818,0.619-0.955,1.098-1.821c0.563,0.817,0.85,0.997,1.179,1.816c0.21,0.522-0.384,1.138-0.384,1.138l-0.003,0.003
			c0.12-0.069,0.253-0.142,0.413-0.218c1.486-0.722,1.069,2.203,0.453,2.514l-0.051,0.05c0.979-0.009,0.591,2.343,0.043,2.619
			l-0.044,0.047c0.955,0.001,0.595,2.26,0.062,2.601c0.963,0.329,0.865,2.657-1.111,3.225h0.006l-0.006,3.523
			c1.652,0.018,3.328,0.088,4.787,0.19l0.371-3.197l0.041,0.005c-1.721-0.782-1.521-3.099-0.61-3.32
			c-0.442-0.396-0.489-2.689,0.382-2.567l-0.041-0.055c-0.461-0.333-0.523-2.704,0.357-2.593l-0.036-0.053
			c-0.521-0.375-0.539-3.322,0.72-2.441c0.156,0.109,0.279,0.207,0.389,0.301l-0.019-0.078c0,0-0.462-0.676-0.206-1.172
			c0.398-0.773,0.676-0.921,1.29-1.669c0.325,0.909,0.565,1.078,0.768,1.929c0.129,0.543-0.479,1.085-0.479,1.085l-0.031,0.052
			c0.119-0.059,0.256-0.119,0.42-0.182c1.428-0.543,0.707,2.311,0.114,2.547l-0.046,0.041c0.879,0.111,0.254,2.393-0.273,2.604
			l-0.055,0.042c0.867,0.097,0.297,2.266-0.223,2.575c0.766,0.428,0.192,2.75-1.451,3.071l0.014,0.001l-0.383,3.157
			c1.363,0.121,2.672,0.296,3.74,0.478l0.024,0.005l0.381-1.151c-1.485-1.131-0.864-3.37,0.032-3.392
			c-0.338-0.488,0.047-2.741,0.841-2.434l-0.028-0.062c-0.37-0.424,0.008-2.749,0.811-2.466l-0.016-0.057
			c-0.418-0.479,0.113-3.368,1.129-2.236c0.115,0.13,0.209,0.245,0.29,0.352l-0.001-0.029c0,0-0.307-0.761,0.023-1.191
			c0.52-0.671,0.809-0.758,1.524-1.359c0.134,0.962,0.329,1.178,0.358,2.054c0.021,0.558-0.651,0.958-0.651,0.958l-0.015,0.019
			c0.121-0.031,0.26-0.061,0.422-0.086c1.443-0.226,0.232,2.416-0.366,2.518l-0.06,0.039c0.807,0.296-0.201,2.392-0.736,2.484
			l-0.061,0.036c0.306,0.109,0.352,0.477,0.264,0.894l0.023-0.046c1.173-0.079,2.826,0.149,2.826,1.609
			c0,2.086-2.145,4.665-2.238,4.773H119.97z"/>
	</g>
</g>
<g id="Shield-PMS_201">
	<g>
		<path fill-rule="evenodd" clip-rule="evenodd" fill="#990000" d="M23.796,6.186c-0.033-0.015-0.057-0.026-0.088-0.04
			c-0.032,0.014-0.057,0.025-0.09,0.04H23.796z"/>
		<path fill-rule="evenodd" clip-rule="evenodd" fill="#990000" d="M107.634,6.186c-0.033-0.015-0.057-0.026-0.088-0.04
			c-0.032,0.014-0.057,0.025-0.091,0.04H107.634z"/>
		<path fill-rule="evenodd" clip-rule="evenodd" fill="#990000" d="M65.778,6.186c-0.033-0.015-0.057-0.026-0.088-0.04
			c-0.031,0.014-0.057,0.025-0.09,0.04H65.778z"/>
	</g>
	<g>
		<path fill-rule="evenodd" clip-rule="evenodd" fill="#990000" d="M0.504,31.463l0.021-0.028c0.788,4.683,5.344,8.277,10.846,8.277
			c5.461,0,9.989-3.54,10.827-8.173c0.789,4.685,5.317,8.173,10.818,8.173c5.462,0,9.963-3.645,10.801-8.277
			c0.789,4.683,5.344,8.277,10.846,8.277c5.461,0,9.963-3.645,10.801-8.277c0.788,4.683,5.342,8.277,10.844,8.277
			c5.463,0,9.965-3.645,10.803-8.277c0.787,4.683,5.344,8.277,10.846,8.277c5.461,0,9.962-3.645,10.8-8.277
			c0.788,4.683,5.344,8.277,10.846,8.277c5.46,0,9.989-3.54,10.828-8.173l0.022,0.07l0.004-7.633l0.023-23.499H0.478l0.023,23.499
			L0.504,31.463z M87.376,24.134c0-0.671,0.523-1.214,1.17-1.214l1.717,0.008l0.001-9.555h-1.718c-0.646,0-1.17-0.544-1.17-1.214
			v-1.118c0-0.671,0.521-1.216,1.17-1.216l1.718-0.001v-2.21h1.487V6.275l0,0V6.273L92.8,6.768V6.186
			c0.979,0.239,0.789,0.546,2.537,0.454c1.139-0.058,6.27-2.602,10.062-1.455c0.959,0.289,1.354,0.61,2.275,1.001
			c0.92-0.391,1.314-0.712,2.271-1.001c3.795-1.147,8.923,1.396,10.061,1.455c1.751,0.092,1.938-0.205,2.539-0.454v0.583
			l1.051-0.495v0.001v1.339h1.486v2.212h1.719c0.646,0,1.168,0.545,1.168,1.216v1.118c0,0.67-0.522,1.214-1.168,1.214h-1.719v9.547
			h1.719c0.646,0,1.168,0.543,1.168,1.214v1.119c0,0.671-0.522,1.216-1.168,1.216l-1.719,0.008v2.196h-15.935
			c-0.001,0-0.003,0.002-0.005,0.003c-0.393,0.35-0.604,0.653-1.021,0.777c-0.129,0.041-0.274,0.064-0.448,0.064
			c-0.041,0-0.068-0.012-0.105-0.013c-0.621-0.029-0.859-0.285-1.334-0.73c-0.039-0.036-0.07-0.063-0.111-0.102H90.263v-2.204
			h-1.717c-0.646,0-1.17-0.545-1.17-1.216V24.134z M45.394,24.134c0-0.671,0.522-1.214,1.169-1.214l1.717,0.008l0-9.555h-1.718
			c-0.646,0-1.169-0.544-1.169-1.214v-1.118c0-0.671,0.521-1.216,1.168-1.216l1.72-0.001v-2.21h1.485V6.275h0.001V6.273l1.048,0.495
			V6.186c0.979,0.239,0.789,0.546,2.538,0.454c1.14-0.058,6.268-2.602,10.062-1.455c0.958,0.289,1.354,0.61,2.276,1.001
			c0.92-0.391,1.312-0.712,2.271-1.001c3.794-1.147,8.923,1.396,10.061,1.455c1.751,0.092,1.938-0.205,2.54-0.454v0.583l0.495-0.233
			l0.556-0.262v1.34h1.484h0.002v2.212h1.719c0.646,0,1.17,0.545,1.17,1.216v1.118c0,0.67-0.524,1.214-1.17,1.214h-1.719v9.547
			h1.719c0.646,0,1.17,0.543,1.17,1.214v1.119c0,0.671-0.524,1.216-1.17,1.216l-1.719,0.008v2.196h-0.002H67.166
			c-0.018,0.016-0.03,0.027-0.047,0.044c-0.362,0.332-0.579,0.618-0.979,0.736c-0.129,0.041-0.273,0.064-0.447,0.064
			c-0.041,0-0.068-0.012-0.107-0.013c-0.621-0.029-0.857-0.285-1.332-0.73c-0.04-0.036-0.072-0.063-0.111-0.102H48.279v-2.204
			h-1.717c-0.646,0-1.169-0.545-1.169-1.216V24.134z M3.41,24.136c0-0.671,0.523-1.213,1.169-1.213l1.718,0.008v-1.276v-8.279H4.579
			c-0.646,0-1.169-0.545-1.169-1.214v-1.118c0-0.671,0.523-1.217,1.169-1.217h1.718l0-2.21h0.001V7.614h1.485V6.275l1.05,0.494
			V6.186c0.979,0.239,0.789,0.546,2.538,0.454c1.14-0.058,6.268-2.602,10.063-1.455c0.958,0.289,1.354,0.61,2.274,1.001
			c0.921-0.391,1.314-0.712,2.273-1.001c3.794-1.147,8.921,1.396,10.061,1.455c1.75,0.092,1.938-0.205,2.537-0.454v0.583
			l1.051-0.494v1.339h1.485v0.001l0,2.212h1.719c0.646,0,1.168,0.545,1.168,1.216v1.118c0,0.669-0.521,1.214-1.168,1.214h-1.719
			v4.768v4.779h1.719c0.646,0,1.168,0.542,1.168,1.213v1.119c0,0.671-0.521,1.216-1.168,1.216l-1.719,0.008v2.195l-15.935,0
			c-0.396,0.353-0.607,0.658-1.029,0.783c-0.128,0.041-0.271,0.062-0.445,0.062c-0.773,0-0.952-0.3-1.551-0.845l-15.86,0v0h0v-2.203
			H4.579c-0.646,0-1.169-0.545-1.169-1.216V24.136z"/>
	</g>
</g>
<g id="Shield-PMS_116">
	<path fill="#FFCC00" d="M23.708,29.518c0.766,0,0.959-0.387,1.474-0.845l15.935,0v-2.195l1.719-0.008
		c0.646,0,1.168-0.545,1.168-1.216v-1.119c0-0.671-0.521-1.213-1.168-1.213h-1.719v-9.547h1.719c0.646,0,1.168-0.545,1.168-1.214
		v-1.118c0-0.671-0.521-1.216-1.168-1.216h-1.719l0-2.212h-1.485v-1.34L38.58,6.77V25.8c-0.845,0.042-1.622,0.295-3.162,0.137
		c-1.899-0.196-5.32-2.333-9.187-1.415c-1.292,0.306-2.052,0.912-2.435,1.521c-0.381-0.609-1.321-1.216-2.613-1.521
		c-3.868-0.918-7.287,1.219-9.186,1.415c-1.541,0.158-2.319-0.093-3.164-0.139l0-19.028l-1.05-0.495v1.34H6.298l0,2.21H4.579
		c-0.646,0-1.169,0.546-1.169,1.217v1.118c0,0.669,0.523,1.214,1.169,1.214h1.718v9.555l-1.718-0.008
		c-0.646,0-1.169,0.542-1.169,1.213v1.119c0,0.671,0.523,1.216,1.169,1.216h1.718v2.203l15.86,0
		C22.756,29.218,22.936,29.518,23.708,29.518z"/>
	<path fill="#FFCC00" d="M107.677,29.517c0.764,0,0.957-0.387,1.472-0.846l15.935,0.002v-2.196l1.719-0.008
		c0.646,0,1.168-0.545,1.168-1.216v-1.119c0-0.671-0.522-1.214-1.168-1.214h-1.719v-9.547h1.719c0.646,0,1.168-0.544,1.168-1.214
		v-1.118c0-0.671-0.522-1.216-1.168-1.216h-1.719V7.614h-1.486v-1.34l-1.051,0.495v19.03c-0.846,0.042-1.621,0.295-3.161,0.137
		c-1.899-0.196-5.321-2.333-9.188-1.414c-1.292,0.306-2.052,0.912-2.437,1.521c-0.379-0.609-1.319-1.216-2.611-1.521
		c-3.867-0.918-7.286,1.218-9.186,1.414c-1.54,0.158-2.319-0.093-3.163-0.138V6.769l-1.05-0.495v1.34h-1.487v2.21l-1.718,0.001
		c-0.648,0-1.17,0.545-1.17,1.216v1.118c0,0.67,0.523,1.214,1.17,1.214h1.718v9.555l-1.718-0.008c-0.646,0-1.17,0.543-1.17,1.214
		v1.119c0,0.671,0.523,1.216,1.17,1.216h1.718v2.204l15.86-0.002C106.723,29.216,106.903,29.517,107.677,29.517z"/>
	<path fill="#FFCC00" d="M65.692,29.517c0.765,0,0.958-0.387,1.474-0.846l15.935,0.002v-2.196l1.719-0.008
		c0.646,0,1.17-0.545,1.17-1.216v-1.119c0-0.671-0.524-1.214-1.17-1.214h-1.719v-9.547h1.719c0.646,0,1.17-0.544,1.17-1.214v-1.118
		c0-0.671-0.524-1.216-1.17-1.216h-1.719V7.614h-1.486v-1.34l-1.051,0.495v19.03c-0.846,0.042-1.623,0.295-3.161,0.137
		c-1.899-0.196-5.321-2.333-9.188-1.414c-1.294,0.306-2.054,0.912-2.438,1.521c-0.378-0.609-1.319-1.216-2.612-1.521
		c-3.867-0.918-7.286,1.218-9.184,1.414c-1.541,0.158-2.32-0.093-3.164-0.138V6.769l-1.049-0.495v1.34h-1.487v2.21l-1.72,0.001
		c-0.646,0-1.168,0.545-1.168,1.216v1.118c0,0.67,0.522,1.214,1.169,1.214h1.719v9.555l-1.719-0.008
		c-0.646,0-1.169,0.543-1.169,1.214v1.119c0,0.671,0.522,1.216,1.169,1.216h1.719v2.204l15.86-0.002
		C64.739,29.216,64.919,29.517,65.692,29.517z"/>
	<path fill="#FFCC00" d="M91.046,116.404c-1.881,0.738-6.67-0.087-6.67-0.087c-2.979-0.179-5.092,2.261-5.092,5.335
		c0,2.541,1.821,4.211,3.931,4.162c1.489-0.035,2.851-0.96,2.851-2.873c0-1.537-0.781-2.487-1.715-2.49
		c-1.133-0.003-1.08,0.555-1.08,0.555c0.806,0.418,1.154,0.865,0.996,1.672c-0.113,0.577-0.668,0.94-1.08,0.967
		c-1.021,0.067-1.723-0.589-1.799-1.641c-0.119-1.637,0.859-3.284,2.935-3.284c1.992,0,3.515,1.378,3.515,3.782
		c0,3.545-2.006,5.33-4.856,5.33c-1.403-0.082-2.901-0.822-2.894-0.815c0.066-0.325,0.113-0.685,0.113-1.02
		c0-3.888-4.547-7.148-10.684-8.05c0-0.551-0.61-1.252-1.533-1.691l-0.016-1.104l-0.002-0.005c1.248-0.385,2.105-1.176,2.105-2.281
		c0-1.159-0.925-2.156-2.266-2.624c-0.172-0.31-0.387-0.587-0.834-0.687c0-0.609-0.443-2.406-0.885-2.553
		c-0.416,0.146-0.953,1.973-0.953,2.582c-0.557,0.258-0.721,0.521-0.811,0.693c-1.287,0.479-2.166,1.459-2.166,2.588
		c0,1.168,0.752,1.899,2.103,2.257c0.041,0.011,0.089,0.022,0.132,0.032l-0.012,0.012l-0.12-0.044l-0.069,1.142
		c-0.897,0.438-1.48,1.126-1.48,1.672c-4.682,0.664-8.401,2.695-9.963,5.337c0,0-3.381-0.208-2.841-4.313
		c0.019-0.045,0.018-0.092,0.018-0.172c0-0.553-1.152-1.022-2.789-1.221c-0.425-0.119-0.973-0.199-1.585-0.212v-0.696
		c0.271,0.006,0.508,0.017,0.824-0.071c1.064-0.293,1.851-0.624,2.056-1.946c0.239-1.534-1.304-3.139-2.192-4.518
		c-0.753-1.168,0.057-3.387-1.098-2.957c-0.384,1.17-0.343,1.789-1.096,2.957c-0.889,1.379-2.431,2.983-2.193,4.518
		c0.205,1.322,0.992,1.653,2.056,1.946c0.368,0.101,0.629,0.075,0.959,0.071v0.707c-0.529,0.031-0.994,0.115-1.356,0.229
		c-1.536,0.21-2.606,0.662-2.606,1.192c0,1.151,1.937,2.256,1.937,2.256s0.997,0.234,3.432,4.045
		c4.333,6.777,11.223,8.045,12.897,8.256c0.243,0.03,0.375,0.037,0.375,0.037c0.952,0.286,1.997,0.462,3.058,0.619
		c0,1.699-2.076,0.879-1.938,2.285l-1.888,1.682c-1.339,0.266-2.042,1.068-2.042,1.718c0,1.522,4.188,2.755,9.355,2.755
		c5.164,0,9.354-1.232,9.354-2.755c0-0.649-0.493-0.937-1.771-1.407l-2.326-2.109c-0.017-1.264-1.81-0.424-1.81-2.125
		c0.949-0.139,1.722-0.323,2.584-0.57c11.431-1.221,17.729-4.405,17.904-10.678c0,0,0.142-2.457-1.551-4.075
		c2.381,0,2.911-0.606,4.096-1.991C93.305,115.869,92.903,115.678,91.046,116.404z"/>
	<path fill="#FFCC00" d="M41.234,66.286c0.093-0.109,2.238-2.688,2.238-4.773c0-1.46-1.654-1.688-2.827-1.609l-0.024,0.046
		c0.088-0.417,0.044-0.784-0.262-0.894l0.06-0.036c0.536-0.093,1.543-2.188,0.735-2.484l0.059-0.039
		c0.601-0.102,1.81-2.743,0.367-2.518c-0.163,0.025-0.299,0.055-0.421,0.086l0.015-0.019c0,0,0.671-0.4,0.652-0.958
		c-0.031-0.875-0.225-1.091-0.36-2.054c-0.715,0.601-1.005,0.688-1.523,1.359c-0.332,0.431-0.024,1.191-0.024,1.191l0.003,0.029
		c-0.082-0.107-0.175-0.221-0.291-0.352c-1.016-1.132-1.547,1.758-1.13,2.236l0.018,0.057c-0.803-0.283-1.182,2.042-0.812,2.466
		l0.029,0.062c-0.795-0.307-1.18,1.946-0.84,2.434c-0.899,0.022-1.518,2.261-0.032,3.392l-0.381,1.151l-0.025-0.005
		c-1.069-0.181-2.376-0.357-3.739-0.478l0.381-3.157l-0.012-0.001c1.643-0.32,2.215-2.643,1.45-3.071
		c0.521-0.309,1.091-2.479,0.224-2.575l0.055-0.042c0.528-0.211,1.154-2.493,0.273-2.604l0.046-0.041
		c0.593-0.237,1.315-3.091-0.116-2.547c-0.163,0.062-0.299,0.123-0.42,0.182l0.033-0.052c0,0,0.608-0.542,0.479-1.085
		c-0.202-0.851-0.443-1.02-0.768-1.929c-0.615,0.748-0.893,0.896-1.292,1.669c-0.255,0.496,0.207,1.172,0.207,1.172l0.019,0.078
		c-0.109-0.094-0.233-0.191-0.389-0.301c-1.258-0.881-1.239,2.066-0.72,2.441l0.037,0.053c-0.882-0.111-0.819,2.259-0.357,2.593
		l0.041,0.055c-0.872-0.122-0.825,2.171-0.383,2.567c-0.91,0.221-1.109,2.538,0.611,3.32l-0.042-0.005l-0.372,3.197
		c-1.458-0.102-3.135-0.172-4.787-0.19l0.005-3.523h-0.006c1.978-0.567,2.074-2.896,1.113-3.225c0.533-0.341,0.892-2.6-0.062-2.601
		l0.043-0.047c0.549-0.276,0.937-2.628-0.042-2.619l0.05-0.05c0.615-0.311,1.034-3.236-0.452-2.514
		c-0.16,0.077-0.294,0.149-0.413,0.218l0.002-0.003c0,0,0.593-0.616,0.383-1.138c-0.33-0.819-0.613-0.999-1.179-1.816
		c-0.477,0.866-0.762,1.003-1.096,1.821c-0.214,0.523,0.375,1.138,0.375,1.138l0.009,0.02c-0.125-0.074-0.266-0.15-0.437-0.234
		c-1.482-0.714-1.081,2.211-0.468,2.517l0.039,0.047c-0.966,0.012-0.592,2.349-0.047,2.621l0.049,0.047
		c-0.952-0.006-0.624,2.214-0.102,2.588c-0.888,0.338-0.575,2.716,1.172,3.229h-0.069l-0.005,3.517h-0.008
		c-1.598,0.005-3.132,0.05-4.568,0.131l-0.465-3.11l-0.152,0.016c1.855-0.724,1.692-3.126,0.759-3.351
		c0.444-0.394,0.492-2.692-0.383-2.568l0.042-0.055c0.463-0.334,0.525-2.716-0.365-2.591l0.044-0.054
		c0.52-0.375,0.538-3.322-0.719-2.441c-0.138,0.097-0.252,0.186-0.354,0.27l0.019-0.047c0,0,0.461-0.676,0.207-1.172
		c-0.398-0.773-0.677-0.921-1.291-1.669c-0.325,0.909-0.566,1.078-0.769,1.929c-0.129,0.543,0.48,1.085,0.48,1.085l0.061,0.084
		c-0.136-0.069-0.29-0.139-0.484-0.214c-1.432-0.543-0.709,2.311-0.116,2.547l0.055,0.041c-0.893,0.098-0.265,2.393,0.267,2.604
		l0.058,0.042c-0.871,0.09-0.305,2.254,0.215,2.574c-0.775,0.438-0.161,2.8,1.538,3.064l-0.143,0.015l0.458,3.069l-0.091,0.006
		c-1.348,0.1-2.59,0.231-3.69,0.39l-0.026,0.004l-0.343-1l-0.133,0.055c1.586-1.11,0.989-3.41,0.075-3.433
		c0.34-0.481-0.042-2.729-0.833-2.438l0.022-0.06c0.371-0.425-0.01-2.754-0.815-2.464l0.021-0.059
		c0.418-0.479-0.115-3.368-1.131-2.236c-0.138,0.153-0.241,0.285-0.33,0.406l0.007-0.083c0,0,0.307-0.761-0.025-1.192
		c-0.519-0.671-0.808-0.757-1.522-1.359c-0.135,0.963-0.331,1.179-0.361,2.054c-0.021,0.559,0.651,0.958,0.651,0.958l0.007,0.005
		c-0.111-0.026-0.237-0.05-0.378-0.073c-1.443-0.226-0.233,2.416,0.367,2.518l0.062,0.039c-0.811,0.293,0.197,2.392,0.732,2.484
		l0.059,0.036c-0.34,0.123-0.351,0.564-0.22,1.039c-0.586-0.249-3.876-0.643-3.876,1.419c0,2.131,2.253,4.793,2.253,4.793
		l0.07,0.029h-0.111c-0.088,0.121-0.129,0.249-0.123,0.381c0.438,8.564,3.033,13.114,4.057,14.467
		c1.415,1.865,3.101,3.688,11.474,3.688c7.459,0,9.425-1.189,11.023-2.375c1.748-1.301,3.729-6.928,4.508-15.737
		c0-0.161-0.102-0.318-0.297-0.473H41.234z M37.727,64.22c1.611,0.047,2.586-2.122,1.937-2.7c0.065-0.021,0.136-0.071,0.208-0.138
		l-0.005,0.009c1.024-0.247,1.762-0.042,2.049,0.285c0.581,0.664-2.008,4.302-2.008,4.302l0.016,0.046
		c-0.546-0.292-1.4-0.563-2.514-0.797h-0.001L37.727,64.22z M10.117,61.676c0.819-0.328,1.064-0.492,2.868,0.083l0.074-0.021
		c-0.329,0.802,0.7,2.664,2.265,2.444l-0.181,0.076l0.248,0.79l-0.027,0.004c-1.44,0.251-2.55,0.554-3.255,0.89l0.015-0.044
		C12.125,65.898,9.297,62.005,10.117,61.676z"/>
	<path fill="#FFCC00" d="M119.954,66.286c0.094-0.109,2.238-2.688,2.238-4.773c0-1.46-1.653-1.688-2.826-1.609l-0.023,0.046
		c0.088-0.417,0.042-0.784-0.264-0.894l0.061-0.036c0.535-0.093,1.543-2.188,0.736-2.484l0.06-0.039
		c0.599-0.102,1.81-2.743,0.366-2.518c-0.162,0.025-0.301,0.055-0.422,0.086l0.015-0.019c0,0,0.673-0.4,0.651-0.958
		c-0.029-0.875-0.225-1.091-0.358-2.054c-0.716,0.601-1.005,0.688-1.524,1.359c-0.33,0.431-0.023,1.191-0.023,1.191l0.001,0.029
		c-0.081-0.107-0.175-0.221-0.29-0.352c-1.016-1.132-1.547,1.758-1.129,2.236l0.016,0.057c-0.803-0.283-1.181,2.042-0.811,2.466
		l0.028,0.062c-0.794-0.307-1.179,1.946-0.841,2.434c-0.896,0.022-1.518,2.261-0.032,3.392l-0.381,1.151l-0.024-0.005
		c-1.068-0.181-2.377-0.357-3.74-0.478l0.383-3.157l-0.014-0.001c1.644-0.32,2.217-2.643,1.451-3.071
		c0.52-0.309,1.09-2.479,0.223-2.575l0.055-0.042c0.527-0.211,1.152-2.493,0.273-2.604l0.046-0.041
		c0.593-0.237,1.313-3.091-0.114-2.547c-0.164,0.062-0.301,0.123-0.42,0.182l0.031-0.052c0,0,0.608-0.542,0.479-1.085
		c-0.202-0.851-0.442-1.02-0.768-1.929c-0.614,0.748-0.892,0.896-1.29,1.669c-0.256,0.496,0.206,1.172,0.206,1.172l0.019,0.078
		c-0.109-0.094-0.232-0.191-0.389-0.301c-1.259-0.881-1.24,2.066-0.72,2.441l0.036,0.053c-0.881-0.111-0.818,2.259-0.357,2.593
		l0.041,0.055c-0.871-0.122-0.824,2.171-0.382,2.567c-0.911,0.221-1.11,2.538,0.61,3.32l-0.041-0.005l-0.371,3.197
		c-1.459-0.102-3.135-0.172-4.787-0.19l0.006-3.523h-0.006c1.977-0.567,2.074-2.896,1.111-3.225c0.533-0.341,0.894-2.6-0.062-2.601
		l0.044-0.047c0.548-0.276,0.936-2.628-0.043-2.619l0.051-0.05c0.616-0.311,1.033-3.236-0.453-2.514
		c-0.16,0.077-0.293,0.149-0.413,0.218l0.003-0.003c0,0,0.594-0.616,0.384-1.138c-0.329-0.819-0.615-0.999-1.179-1.816
		c-0.479,0.866-0.762,1.003-1.098,1.821c-0.213,0.523,0.377,1.138,0.377,1.138l0.007,0.02c-0.124-0.074-0.265-0.15-0.437-0.234
		c-1.482-0.714-1.081,2.211-0.467,2.517l0.037,0.047c-0.965,0.012-0.593,2.349-0.047,2.621l0.049,0.047
		c-0.949-0.006-0.623,2.214-0.102,2.588c-0.887,0.338-0.575,2.716,1.172,3.229h-0.068l-0.006,3.517h-0.009
		c-1.597,0.005-3.132,0.05-4.567,0.131l-0.465-3.11l-0.153,0.016c1.857-0.724,1.694-3.126,0.761-3.351
		c0.443-0.394,0.49-2.692-0.385-2.568l0.043-0.055c0.465-0.334,0.525-2.716-0.365-2.591l0.046-0.054
		c0.519-0.375,0.538-3.322-0.72-2.441c-0.139,0.097-0.253,0.186-0.354,0.27l0.019-0.047c0,0,0.46-0.676,0.205-1.172
		c-0.398-0.773-0.677-0.921-1.289-1.669c-0.325,0.909-0.567,1.078-0.769,1.929c-0.129,0.543,0.48,1.085,0.48,1.085l0.06,0.084
		c-0.135-0.069-0.288-0.139-0.483-0.214c-1.43-0.543-0.707,2.311-0.114,2.547l0.053,0.041c-0.892,0.098-0.264,2.393,0.267,2.604
		l0.059,0.042c-0.873,0.09-0.307,2.254,0.215,2.574c-0.775,0.438-0.16,2.8,1.537,3.064l-0.143,0.015l0.459,3.069l-0.092,0.006
		c-1.347,0.1-2.589,0.231-3.69,0.39l-0.024,0.004l-0.345-1l-0.134,0.055c1.587-1.11,0.99-3.41,0.076-3.433
		c0.339-0.481-0.042-2.729-0.833-2.438l0.022-0.06c0.37-0.425-0.011-2.754-0.814-2.464l0.02-0.059
		c0.418-0.479-0.113-3.368-1.131-2.236c-0.137,0.153-0.24,0.285-0.33,0.406l0.008-0.083c0,0,0.307-0.761-0.024-1.192
		c-0.519-0.671-0.808-0.757-1.523-1.359c-0.135,0.963-0.329,1.179-0.36,2.054c-0.021,0.559,0.652,0.958,0.652,0.958l0.006,0.005
		c-0.11-0.026-0.236-0.05-0.379-0.073c-1.441-0.226-0.23,2.416,0.368,2.518l0.063,0.039c-0.813,0.293,0.195,2.392,0.73,2.484
		l0.061,0.036c-0.34,0.123-0.351,0.564-0.221,1.039c-0.586-0.249-3.875-0.643-3.875,1.419c0,2.131,2.252,4.793,2.252,4.793
		l0.07,0.029h-0.111c-0.088,0.121-0.13,0.249-0.121,0.381c0.437,8.564,3.032,13.114,4.055,14.467
		c1.415,1.865,3.102,3.688,11.475,3.688c7.459,0,9.426-1.189,11.022-2.375c1.749-1.301,3.731-6.928,4.511-15.737
		c0-0.161-0.104-0.318-0.299-0.473H119.954z M116.446,64.22c1.613,0.047,2.587-2.122,1.937-2.7c0.064-0.021,0.138-0.071,0.21-0.138
		l-0.005,0.009c1.024-0.247,1.761-0.042,2.048,0.285c0.58,0.664-2.008,4.302-2.008,4.302l0.016,0.046
		c-0.547-0.292-1.397-0.563-2.514-0.797h-0.002L116.446,64.22z M88.839,61.676c0.816-0.328,1.062-0.492,2.865,0.083l0.076-0.021
		c-0.33,0.802,0.699,2.664,2.264,2.444l-0.182,0.076l0.25,0.79l-0.027,0.004c-1.439,0.251-2.55,0.554-3.256,0.89l0.016-0.044
		C90.845,65.898,88.017,62.005,88.839,61.676z"/>
</g>
<g id="Shield-Black">
	
		<line fill="none" stroke="#000000" stroke-width="0.2386" stroke-miterlimit="3.8637" x1="23.708" y1="6.186" x2="23.708" y2="25.971"/>
	
		<line fill="none" stroke="#000000" stroke-width="0.2386" stroke-miterlimit="3.8637" x1="8.834" y1="25.798" x2="7.784" y2="27.519"/>
	<path fill="none" stroke="#000000" stroke-width="0.2386" stroke-miterlimit="3.8637" d="M6.297,26.469H4.579
		c-0.646,0-1.169-0.545-1.169-1.216v-1.119c0-0.671,0.523-1.214,1.169-1.214h1.718"/>
	<path fill="none" stroke="#000000" stroke-width="0.2386" stroke-miterlimit="3.8637" d="M6.297,13.374H4.579
		c-0.646,0-1.169-0.544-1.169-1.214v-1.118c0-0.671,0.523-1.216,1.169-1.216h1.718"/>
	<path fill="none" stroke="#000000" stroke-width="0.2386" stroke-miterlimit="3.8637" d="M22.477,27.517
		c-0.731-0.387-1.51-0.686-2.339-0.822c-3.384-0.562-6.584,0.939-7.723,0.998c-1.077,0.057-2.908,0.304-4.63-0.174V7.641"/>
	
		<line fill="none" stroke="#000000" stroke-width="0.2386" stroke-miterlimit="3.8637" x1="38.58" y1="25.798" x2="39.57" y2="27.479"/>
	<path fill="none" stroke="#000000" stroke-width="0.2386" stroke-miterlimit="3.8637" d="M41.117,26.469h1.718
		c0.646,0,1.17-0.545,1.17-1.216v-1.119c0-0.671-0.523-1.214-1.17-1.214h-1.718"/>
	<path fill="none" stroke="#000000" stroke-width="0.2386" stroke-miterlimit="3.8637" d="M41.117,13.374h1.718
		c0.646,0,1.17-0.544,1.17-1.214v-1.118c0-0.671-0.523-1.216-1.17-1.216h-1.718"/>
	<path fill="none" stroke="#000000" stroke-width="0.2386" stroke-miterlimit="3.8637" d="M25.012,27.5
		c0.73-0.387,1.437-0.668,2.265-0.805c3.384-0.562,6.584,0.939,7.724,0.998c1.075,0.057,2.908,0.304,4.631-0.174V7.614"/>
	<path fill="none" stroke="#000000" stroke-width="0.2386" stroke-miterlimit="3.8637" d="M23.721,28.733
		c0.577-0.043,1.261-0.302,1.287-1.128c0-1.084-0.835-1.606-1.287-1.562c-0.452-0.044-1.286,0.478-1.286,1.562
		C22.46,28.431,23.144,28.69,23.721,28.733z"/>
	<path fill="none" stroke="#000000" stroke-width="0.2386" stroke-linejoin="round" stroke-miterlimit="3.8637" d="M38.58,6.68
		v19.118c-0.844,0.045-1.622,0.295-3.163,0.137c-1.898-0.196-5.319-2.333-9.186-1.414c-1.292,0.306-2.141,0.841-2.522,1.45
		c-0.381-0.609-1.233-1.145-2.525-1.45c-3.868-0.918-7.287,1.218-9.187,1.414c-1.54,0.158-2.318-0.091-3.163-0.137V6.68"/>
	<path fill="none" stroke="#000000" stroke-width="0.2386" stroke-miterlimit="3.8637" d="M23.708,29.518
		c-0.674,0-0.978-0.315-1.551-0.845H6.297l0.002-21.06h1.485V6.275l1.05,0.494V6.186c0.979,0.239,0.789,0.546,2.538,0.454
		c1.14-0.058,6.268-2.602,10.063-1.455c0.958,0.289,1.354,0.61,2.274,1.001c0.921-0.391,1.314-0.712,2.273-1.001
		c3.794-1.147,8.921,1.396,10.061,1.455c1.75,0.092,1.938-0.205,2.537-0.454v0.583l1.051-0.494v1.339h1.485l0.001,21.06H25.183
		C24.61,29.203,24.383,29.518,23.708,29.518z"/>
	
		<line fill="none" stroke="#000000" stroke-width="0.2386" stroke-miterlimit="3.8637" x1="65.692" y1="6.186" x2="65.692" y2="25.971"/>
	
		<line fill="none" stroke="#000000" stroke-width="0.2386" stroke-miterlimit="3.8637" x1="50.816" y1="25.798" x2="49.767" y2="27.519"/>
	<path fill="none" stroke="#000000" stroke-width="0.2386" stroke-miterlimit="3.8637" d="M48.28,26.469h-1.718
		c-0.646,0-1.169-0.545-1.169-1.216v-1.119c0-0.671,0.523-1.214,1.169-1.214h1.718"/>
	<path fill="none" stroke="#000000" stroke-width="0.2386" stroke-miterlimit="3.8637" d="M48.28,13.374h-1.718
		c-0.646,0-1.169-0.544-1.169-1.214v-1.118c0-0.671,0.523-1.216,1.169-1.216h1.718"/>
	<path fill="none" stroke="#000000" stroke-width="0.2386" stroke-miterlimit="3.8637" d="M64.459,27.517
		c-0.732-0.387-1.511-0.686-2.339-0.822c-3.384-0.562-6.584,0.939-7.723,0.998c-1.077,0.057-2.908,0.304-4.63-0.174V7.641"/>
	
		<line fill="none" stroke="#000000" stroke-width="0.2386" stroke-miterlimit="3.8637" x1="80.563" y1="25.798" x2="81.551" y2="27.479"/>
	<path fill="none" stroke="#000000" stroke-width="0.2386" stroke-miterlimit="3.8637" d="M83.099,26.469h1.719
		c0.646,0,1.17-0.545,1.17-1.216v-1.119c0-0.671-0.523-1.214-1.17-1.214h-1.719"/>
	<path fill="none" stroke="#000000" stroke-width="0.2386" stroke-miterlimit="3.8637" d="M83.099,13.374h1.719
		c0.646,0,1.17-0.544,1.17-1.214v-1.118c0-0.671-0.523-1.216-1.17-1.216h-1.719"/>
	<path fill="none" stroke="#000000" stroke-width="0.2386" stroke-miterlimit="3.8637" d="M66.993,27.5
		c0.732-0.387,1.438-0.668,2.266-0.805c3.383-0.562,6.582,0.939,7.723,0.998c1.077,0.057,2.908,0.304,4.631-0.174V7.614"/>
	<path fill="none" stroke="#000000" stroke-width="0.2386" stroke-miterlimit="3.8637" d="M65.702,28.733
		c0.578-0.043,1.262-0.302,1.288-1.128c0-1.084-0.833-1.606-1.288-1.562c-0.451-0.044-1.285,0.478-1.285,1.562
		C64.444,28.431,65.126,28.69,65.702,28.733z"/>
	<path fill="none" stroke="#000000" stroke-width="0.2386" stroke-linejoin="round" stroke-miterlimit="3.8637" d="M80.563,6.68
		v19.118c-0.847,0.045-1.625,0.295-3.166,0.137c-1.896-0.196-5.316-2.333-9.184-1.414c-1.293,0.306-2.141,0.841-2.521,1.45
		c-0.383-0.609-1.234-1.145-2.527-1.45c-3.867-0.918-7.286,1.218-9.186,1.414c-1.541,0.158-2.318-0.091-3.163-0.137V6.68"/>
	<path fill="none" stroke="#000000" stroke-width="0.2386" stroke-miterlimit="3.8637" d="M65.692,29.518
		c-0.677,0-0.98-0.315-1.551-0.845H48.279l0.002-21.06h1.485V6.275l1.05,0.494V6.186c0.979,0.239,0.789,0.546,2.538,0.454
		c1.14-0.058,6.268-2.602,10.062-1.455c0.958,0.289,1.354,0.61,2.276,1.001c0.92-0.391,1.312-0.712,2.271-1.001
		c3.794-1.147,8.923,1.396,10.061,1.455c1.751,0.092,1.938-0.205,2.54-0.454v0.583l1.049-0.494v1.339h1.486v21.06H67.166
		C66.592,29.203,66.366,29.518,65.692,29.518z"/>
	
		<line fill="none" stroke="#000000" stroke-width="0.2386" stroke-miterlimit="3.8637" x1="107.675" y1="6.186" x2="107.675" y2="25.971"/>
	
		<line fill="none" stroke="#000000" stroke-width="0.2386" stroke-miterlimit="3.8637" x1="92.8" y1="25.798" x2="91.751" y2="27.519"/>
	<path fill="none" stroke="#000000" stroke-width="0.2386" stroke-miterlimit="3.8637" d="M90.263,26.469h-1.717
		c-0.648,0-1.171-0.545-1.171-1.216v-1.119c0-0.671,0.522-1.214,1.171-1.214h1.717"/>
	<path fill="none" stroke="#000000" stroke-width="0.2386" stroke-miterlimit="3.8637" d="M90.263,13.374h-1.717
		c-0.648,0-1.171-0.544-1.171-1.214v-1.118c0-0.671,0.522-1.216,1.171-1.216h1.717"/>
	<path fill="none" stroke="#000000" stroke-width="0.2386" stroke-miterlimit="3.8637" d="M106.442,27.517
		c-0.733-0.387-1.512-0.686-2.339-0.822c-3.384-0.562-6.585,0.939-7.724,0.998c-1.076,0.057-2.906,0.304-4.629-0.174V7.641"/>
	
		<line fill="none" stroke="#000000" stroke-width="0.2386" stroke-miterlimit="3.8637" x1="122.546" y1="25.798" x2="123.534" y2="27.479"/>
	<path fill="none" stroke="#000000" stroke-width="0.2386" stroke-miterlimit="3.8637" d="M125.083,26.469h1.719
		c0.646,0,1.168-0.545,1.168-1.216v-1.119c0-0.671-0.522-1.214-1.168-1.214h-1.719"/>
	<path fill="none" stroke="#000000" stroke-width="0.2386" stroke-miterlimit="3.8637" d="M125.083,13.374h1.719
		c0.646,0,1.168-0.544,1.168-1.214v-1.118c0-0.671-0.522-1.216-1.168-1.216h-1.719"/>
	<path fill="none" stroke="#000000" stroke-width="0.2386" stroke-miterlimit="3.8637" d="M108.976,27.5
		c0.732-0.387,1.438-0.668,2.266-0.805c3.385-0.562,6.584,0.939,7.725,0.998c1.076,0.057,2.906,0.304,4.631-0.174V7.614"/>
	<path fill="none" stroke="#000000" stroke-width="0.2386" stroke-miterlimit="3.8637" d="M107.687,28.733
		c0.577-0.043,1.26-0.302,1.286-1.128c0-1.084-0.833-1.606-1.286-1.562c-0.453-0.044-1.287,0.478-1.287,1.562
		C106.427,28.431,107.109,28.69,107.687,28.733z"/>
	<path fill="none" stroke="#000000" stroke-width="0.2386" stroke-linejoin="round" stroke-miterlimit="3.8637" d="M122.546,6.68
		v19.118c-0.846,0.045-1.623,0.295-3.164,0.137c-1.896-0.196-5.317-2.333-9.185-1.414c-1.292,0.306-2.142,0.841-2.522,1.45
		c-0.383-0.609-1.233-1.145-2.527-1.45c-3.867-0.918-7.285,1.218-9.186,1.414c-1.539,0.158-2.317-0.091-3.162-0.137V6.68"/>
	<path fill="none" stroke="#000000" stroke-width="0.2386" stroke-miterlimit="3.8637" d="M107.675,29.518
		c-0.676,0-0.979-0.315-1.551-0.845H90.263l0.001-21.06h1.487V6.275L92.8,6.769V6.186c0.979,0.239,0.789,0.546,2.537,0.454
		c1.139-0.058,6.27-2.602,10.062-1.455c0.959,0.289,1.354,0.61,2.275,1.001c0.92-0.391,1.314-0.712,2.271-1.001
		c3.795-1.147,8.923,1.396,10.061,1.455c1.751,0.092,1.938-0.205,2.539-0.454v0.583l1.051-0.494v1.339h1.486v21.06h-15.935
		C108.575,29.203,108.347,29.518,107.675,29.518z"/>
	<path fill="none" stroke="#000000" stroke-width="0.9542" stroke-miterlimit="3.8637" d="M130.479,0.477l-0.055,54.611
		c-0.025,28.552-9.914,74.776-64.946,95.389C10.443,129.864,0.559,83.64,0.532,55.088L0.478,0.477H130.479L130.479,0.477z"/>
	<g>
		<g>
			<path fill-rule="evenodd" clip-rule="evenodd" d="M27.174,21.563h7.601c0.273-0.91,0.45-1.852,0.464-3.006h-0.206
				c-0.342,1.914-1.189,2.643-2.912,2.643c-2.241,0-2.049-1.245-2.049-2.142v-2.491h1.421c1.025,0,1.777,0.014,1.955,1.353h0.206
				v-3.387h-0.206c-0.15,1.305-0.93,1.396-1.955,1.396h-1.421V11.6h1.326c1.38,0,2.651,0.016,2.748,1.975h0.205l0.163-2.338h-7.34
				v0.226c1.641,0.245,1.655,0.7,1.696,2.266v5.344c-0.041,1.566-0.055,2.021-1.696,2.266V21.563L27.174,21.563z"/>
			<path fill-rule="evenodd" clip-rule="evenodd" d="M17.556,11.236v0.226c2.078,0.336,1.858,0.837,0.683,3.95l-1.612,4.299
				l-2.188-5.862c-0.355-0.957-0.984-2.173,0.944-2.387v-0.226h-4.333v0.226c1.216,0.153,1.531,1.125,1.94,2.233l3.09,8.217h0.191
				l2.61-6.926c0.848-2.201,1.245-3.4,2.53-3.524v-0.226H17.556L17.556,11.236z"/>
			<path fill-rule="evenodd" clip-rule="evenodd" d="M103.389,10.902c-0.341,0.349-0.396,0.334-0.847,0.334H96.28
				c-0.449,0-0.504,0.015-0.848-0.334l-0.135-0.137h-0.109l-0.19,2.84l0.19,0.047c0.478-1.883,1.229-1.961,2.803-1.961h0.818v7.019
				c0,1.881-0.08,2.383-1.913,2.627v0.226h5.03v-0.226c-1.832-0.244-1.914-0.746-1.914-2.627v-7.019h0.82
				c1.572,0,2.324,0.078,2.802,1.961l0.192-0.047l-0.192-2.84h-0.108L103.389,10.902L103.389,10.902z M109.201,17.236
				c0.357,1.063,0.874,2.491,0.874,3.128c0,0.683-0.574,0.85-1.051,0.973v0.226h4.018v-0.226c-1.093-0.229-1.326-0.671-1.693-1.777
				l-3.008-8.899c-0.287,0.378-0.629,0.652-0.997,0.818c0.151,0.29-0.028,0.654-0.149,1.049l-0.822,2.473l-1.543,4.481
				c-0.424,1.184-0.547,1.489-1.763,1.854v0.226h3.744v-0.226c-0.615-0.107-1.559-0.107-1.559-1.034
				c0-0.729,0.601-2.309,0.833-3.067H109.201L109.201,17.236z M109.024,16.537h-2.706l1.284-3.949L109.024,16.537L109.024,16.537z
				 M119.312,11.63c-0.602-0.365-1.298-0.592-1.996-0.592c-1.463,0-3.049,1.124-3.049,2.902c0,3.037,4.182,2.794,4.182,5.497
				c0,1.187-0.792,1.854-1.805,1.854c-1.502,0-2.418-1.444-2.76-2.902h-0.246l0.397,2.583c0.696,0.5,1.571,0.774,2.405,0.774
				c1.573,0,3.32-1.019,3.32-2.977c0-3.069-4.307-2.978-4.307-5.604c0-1.003,0.726-1.672,1.6-1.672c1.354,0,1.711,1.185,1.928,2.416
				h0.221L119.312,11.63L119.312,11.63z"/>
			<path fill-rule="evenodd" clip-rule="evenodd" d="M73.847,13.728c0.041-1.566,0.055-2.021,1.693-2.266v-0.226h-4.592v0.226
				c1.641,0.245,1.655,0.7,1.695,2.266v5.344c-0.04,1.566-0.055,2.021-1.695,2.266v0.226h4.592v-0.226
				c-1.639-0.244-1.652-0.699-1.693-2.266V13.728L73.847,13.728z"/>
			<path fill-rule="evenodd" clip-rule="evenodd" d="M56.709,11.525c1.435-0.016,2.843,0.697,2.843,2.476
				c0,1.685-1.531,2.354-2.843,2.369V11.525L56.709,11.525z M55.506,19.072c-0.041,1.566-0.054,2.021-1.695,2.266v0.226h4.797
				v-0.226c-1.873-0.29-1.899-0.594-1.899-2.266v-2.443c0.958,0.181,1.448-0.182,1.995,1.077c0.289,0.653,0.999,1.989,1.901,3.038
				c0.793,0.913,1.857,0.867,3.309,0.943l0.039-0.229c-2.254-0.518-3.566-3.129-4.619-5.179l-0.067-0.106
				c0.983-0.487,1.694-1.215,1.694-2.493c0-0.727-0.274-2.595-3.718-2.475l-3.334,0.121v0.214c1.53,0.151,1.599,0.502,1.599,2.825
				V19.072L55.506,19.072z"/>
			<polyline fill="none" stroke="#000000" stroke-width="0.4771" stroke-miterlimit="3.8637" points="24.295,122.652 65.438,85.772 
				106.579,122.652 			"/>
			<polyline fill="none" stroke="#000000" stroke-width="0.4771" stroke-miterlimit="3.8637" points="13.805,107.9 65.438,62.825 
				117.07,107.9 			"/>
			<path fill="none" stroke="#000000" stroke-width="0.4771" stroke-miterlimit="3.8637" d="M130.43,37.329
				c-0.838,3.35-5.368,5.908-10.828,5.908c-5.502,0-10.058-2.598-10.846-5.983c-0.838,3.347-5.339,5.983-10.8,5.983
				c-5.502,0-10.059-2.598-10.846-5.983c-0.838,3.347-5.34,5.983-10.803,5.983c-5.5,0-10.055-2.598-10.844-5.983
				c-0.838,3.347-5.34,5.983-10.801,5.983c-5.502,0-10.057-2.598-10.846-5.983c-0.838,3.347-5.339,5.983-10.801,5.983
				c-5.501,0-10.029-2.521-10.818-5.908c-0.838,3.35-5.366,5.908-10.827,5.908c-5.502,0-10.058-2.598-10.846-5.983"/>
			<path fill="none" stroke="#000000" stroke-width="0.4771" stroke-miterlimit="3.8637" d="M130.43,31.539
				c-0.839,4.633-5.368,8.173-10.828,8.173c-5.502,0-10.058-3.594-10.846-8.277c-0.838,4.633-5.339,8.277-10.8,8.277
				c-5.502,0-10.059-3.594-10.846-8.277c-0.838,4.633-5.34,8.277-10.803,8.277c-5.502,0-10.056-3.594-10.844-8.277
				c-0.838,4.633-5.34,8.277-10.801,8.277c-5.502,0-10.057-3.594-10.846-8.277c-0.838,4.633-5.339,8.277-10.801,8.277
				c-5.501,0-10.029-3.488-10.818-8.173c-0.838,4.633-5.366,8.173-10.827,8.173c-5.502,0-10.058-3.594-10.846-8.277"/>
			<path fill="none" stroke="#000000" stroke-width="0.2386" stroke-miterlimit="3.8637" d="M71.344,136.167
				c0.005,1.4-3.562,1.529-5.256,1.529s-5.433-0.451-5.433-1.74"/>
			<path fill="none" stroke="#000000" stroke-width="0.2386" stroke-miterlimit="3.8637" d="M70.348,135.24
				c0.071,0.082,0.036,0.179,0.035,0.266c-0.034,0.914-2.405,1.131-4.241,1.131s-4.428-0.514-4.428-1.143
				c0-0.176,0.15-0.34,0.422-0.488"/>
			<path fill="none" stroke="#000000" stroke-width="0.2386" stroke-miterlimit="3.8637" d="M79.148,122.917
				c0,1.345-5.243,2.405-13.007,2.405c-7.765,0-12.895-1.485-12.895-2.83"/>
			<path fill="none" stroke="#000000" stroke-width="0.2386" stroke-miterlimit="3.8637" d="M59.543,133.38
				c0,0-8.313-0.534-13.272-8.293c-2.435-3.811-3.432-4.045-3.432-4.045s-1.937-1.104-1.937-2.256"/>
			<path fill="none" stroke="#000000" stroke-width="0.2386" stroke-miterlimit="3.8637" d="M80.034,124.882
				c0,1.343-6.404,2.96-14.169,2.96c-5.917,0-10.744-0.872-12.79-1.913c0,0-5.643,0.682-6.251-5.943"/>
			<path fill="none" stroke="#000000" stroke-width="0.2386" stroke-miterlimit="3.8637" d="M62.819,118.404
				c0,0-5.478,1.35-6.862,5.746"/>
			<path fill="none" stroke="#000000" stroke-width="0.2386" stroke-miterlimit="3.8637" d="M56.017,126.875
				c0,0-0.341,5.033,6.356,7.085"/>
			<path fill="none" stroke="#000000" stroke-width="0.2386" stroke-miterlimit="3.8637" d="M64.868,119.4
				c0,0-3.21,1.643-3.045,5.688"/>
			<path fill="none" stroke="#000000" stroke-width="0.2386" stroke-miterlimit="3.8637" d="M67.304,119.4
				c0,0,2.934,1.348,2.934,5.747"/>
			<path fill="none" stroke="#000000" stroke-width="0.2386" stroke-miterlimit="3.8637" d="M69.296,118.461
				c0,0,5.203,0.821,7.086,5.921"/>
			<path fill="none" stroke="#000000" stroke-width="0.2386" stroke-miterlimit="3.8637" d="M76.382,126.729
				c0,0-0.498,4.806-8.303,7.505"/>
			<path fill="none" stroke="#000000" stroke-width="0.2386" stroke-miterlimit="3.8637" d="M69.905,127.784
				c0,0-0.139,5.894-3.902,6.45"/>
			<path fill="none" stroke="#000000" stroke-width="0.2386" stroke-miterlimit="3.8637" d="M61.271,127.667
				c0,0,0.387,6.216,4.815,6.567"/>
			<path fill="none" stroke="#000000" stroke-width="0.2386" stroke-miterlimit="3.8637" d="M62.601,134
				c0,1.699-2.076,0.879-1.938,2.285l-1.888,1.682c-1.339,0.266-2.042,1.068-2.042,1.718c0,1.522,4.188,2.755,9.355,2.755
				c5.164,0,9.354-1.232,9.354-2.755c0-0.649-0.493-0.937-1.771-1.407l-2.326-2.109c-0.017-1.264-1.81-0.424-1.81-2.125"/>
			<path fill="none" stroke="#000000" stroke-width="0.2386" stroke-miterlimit="3.8637" d="M58.774,137.966
				c0,0-0.139,2.889,7.313,2.889c7.451,0,7.583-2.578,7.583-2.578"/>
			<path fill="none" stroke="#000000" stroke-width="0.2386" stroke-miterlimit="3.8637" d="M67.983,116.255
				c0,0.68-0.858,1.151-1.896,1.151c-1.039,0-1.896-0.466-1.896-1.144"/>
			<path fill="none" stroke="#000000" stroke-width="0.2386" stroke-miterlimit="3.8637" d="M67.806,110.241
				c-0.027,0.938-0.681,1.511-1.719,1.511c-1.039,0-1.764-0.793-1.764-1.475"/>
			<path fill="none" stroke="#000000" stroke-width="0.2386" stroke-miterlimit="3.8637" d="M66.972,109.554
				c0,0.609-0.374,0.936-0.885,0.936c-0.514,0-0.953-0.297-0.953-0.906"/>
			<path fill="none" stroke="#000000" stroke-width="0.2386" stroke-miterlimit="3.8637" d="M80.087,127.016
				c-0.008-0.007,1.49,0.733,2.894,0.815c2.851,0,4.856-1.785,4.856-5.33c0-2.404-1.522-3.782-3.515-3.782
				c-2.075,0-3.054,1.647-2.935,3.284c0.076,1.052,0.777,1.708,1.799,1.641c0.412-0.026,0.967-0.39,1.08-0.967
				c0.158-0.807-0.19-1.254-0.996-1.672c0,0-0.053-0.558,1.08-0.555c0.934,0.003,1.715,0.953,1.715,2.49
				c0,1.913-1.361,2.838-2.851,2.873c-2.109,0.049-3.931-1.621-3.931-4.162c0-3.074,2.113-5.514,5.092-5.335
				c0,0,4.789,0.825,6.67,0.087c1.857-0.726,2.259-0.535,1.521,0.324c-1.185,1.385-1.715,1.991-4.096,1.991
				c1.692,1.618,1.551,4.075,1.551,4.075c-0.176,6.272-6.474,9.457-17.904,10.678"/>
			<path fill="none" stroke="#000000" stroke-width="0.2386" stroke-miterlimit="3.8637" d="M67.968,115.151l0.016,1.104
				c0.923,0.439,1.533,1.141,1.533,1.691c6.137,0.901,10.684,4.162,10.684,8.05c0,0.335-0.047,0.694-0.113,1.02
				c-0.576,2.854-3.75,5.239-7.969,6.456c-0.862,0.247-1.635,0.432-2.584,0.57c-1.103,0.162-2.258,0.25-3.447,0.25
				c-1.176,0-2.396-0.134-3.486-0.293c-1.061-0.157-2.105-0.333-3.058-0.619c-2.164-0.65-3.778-1.671-5.114-2.855
				c0,0-1.374-1.054-1.46-6.198c0,0,0.079-0.909-0.222-1.055"/>
			<path fill="none" stroke="#000000" stroke-width="0.2386" stroke-miterlimit="3.8637" d="M69.517,117.947
				c0,0.873-1.521,1.569-3.404,1.569c-1.877,0-3.402-0.706-3.402-1.581"/>
			<path fill="none" stroke="#000000" stroke-width="0.2386" stroke-miterlimit="3.8637" d="M49.924,118.787
				c-0.664,4.28,2.823,4.485,2.823,4.485c1.562-2.642,5.281-4.673,9.963-5.337c0-0.546,0.583-1.234,1.48-1.672l0.069-1.142"/>
			<path fill="none" stroke="#000000" stroke-width="0.2386" stroke-miterlimit="3.8637" d="M65.134,109.583
				c0-0.609,0.537-2.436,0.953-2.582c0.441,0.146,0.885,1.943,0.885,2.553c0.447,0.1,0.662,0.377,0.834,0.687
				c1.341,0.468,2.266,1.465,2.266,2.624c0,1.125-0.887,1.926-2.168,2.304c-0.547,0.161-1.165,0.247-1.816,0.247
				c-0.591,0-1.326-0.16-1.827-0.294c-1.351-0.357-2.103-1.089-2.103-2.257c0-1.129,0.879-2.108,2.166-2.588
				C64.413,110.105,64.577,109.841,65.134,109.583z"/>
			<path fill="none" stroke="#000000" stroke-width="0.2386" stroke-miterlimit="3.8637" d="M45.14,107.166
				c-0.384,1.17-0.343,1.789-1.096,2.957c-0.889,1.379-2.431,2.983-2.193,4.518c0.205,1.322,0.992,1.653,2.056,1.946
				c0.465,0.128,0.753,0.048,1.233,0.079c0.481-0.031,0.77,0.049,1.234-0.079c1.064-0.293,1.851-0.624,2.056-1.946
				c0.239-1.534-1.304-3.139-2.192-4.518C45.484,108.955,46.294,106.736,45.14,107.166L45.14,107.166z"/>
			<path stroke="#000000" stroke-width="0.2386" stroke-miterlimit="3.8637" d="M45.55,117.354v-1.915c0-0.418-0.685-0.418-0.685,0
				v1.926c-1.202,0.071-2.11,0.399-2.11,0.791c0,0.446,1.172,0.805,2.617,0.805c1.443,0,2.615-0.358,2.615-0.805
				C47.987,117.729,46.909,117.383,45.55,117.354z"/>
			<path fill="none" stroke="#000000" stroke-width="0.2386" stroke-miterlimit="3.8637" d="M49.797,119.093
				c-0.601,0.523-2.4,1.012-4.384,1.012c-1.906,0-3.719-0.381-4.308-0.953c-0.097-0.094-0.203-0.197-0.203-0.365
				c0-0.729,2.02-1.32,4.511-1.32c2.492,0,4.511,0.591,4.511,1.32C49.924,118.935,49.951,118.957,49.797,119.093z"/>
		</g>
	</g>
	<path fill="none" stroke="#000000" stroke-width="0.2386" stroke-miterlimit="3.8637" d="M41.219,66.306
		c0,0,2.254-2.663,2.254-4.793c0-1.46-1.654-1.688-2.827-1.609"/>
	<path fill="none" stroke="#000000" stroke-width="0.2386" stroke-miterlimit="3.8637" d="M16.384,64.891
		c1.101-0.158,2.343-0.29,3.69-0.39"/>
	<path fill="none" stroke="#000000" stroke-width="0.2386" stroke-miterlimit="3.8637" d="M21.139,64.432
		c1.453-0.083,3.011-0.129,4.632-0.134"/>
	<path fill="none" stroke="#000000" stroke-width="0.2386" stroke-miterlimit="3.8637" d="M26.917,64.305
		c1.662,0.018,3.351,0.088,4.815,0.192"/>
	<path fill="none" stroke="#000000" stroke-width="0.2386" stroke-linecap="round" stroke-miterlimit="3.8637" d="M37.41,65.227
		c1.999,0.419,3.194,0.953,3.194,1.531c0,1.356-6.568,2.459-14.669,2.459c-8.103,0-14.67-1.103-14.67-2.459
		c0-0.662,1.561-1.264,4.1-1.706"/>
	<path fill="none" stroke="#000000" stroke-width="0.2386" stroke-miterlimit="3.8637" d="M32.692,64.574
		c1.373,0.121,2.688,0.298,3.764,0.48"/>
	<path fill="none" stroke="#000000" stroke-width="0.2386" stroke-miterlimit="3.8637" d="M11.642,54.045
		c0,0-0.673-0.399-0.651-0.958c0.03-0.875,0.226-1.091,0.361-2.054c0.714,0.602,1.003,0.688,1.522,1.359
		c0.332,0.431,0.025,1.192,0.025,1.192"/>
	<path fill="none" stroke="#000000" stroke-width="0.2386" stroke-miterlimit="3.8637" d="M14.352,55.498
		c0.418-0.479-0.115-3.368-1.131-2.236c-0.797,0.889-0.699,1.232-0.699,1.232s-0.116-0.335-1.251-0.515
		c-1.443-0.226-0.233,2.416,0.367,2.518"/>
	<path fill="none" stroke="#000000" stroke-width="0.2386" stroke-miterlimit="3.8637" d="M15.146,58.02
		c0.416-0.478-0.114-3.367-1.13-2.235c-0.798,0.888-0.701,1.231-0.701,1.231S13.2,56.679,12.065,56.5
		c-1.444-0.226-0.233,2.415,0.367,2.519"/>
	<path fill="none" stroke="#000000" stroke-width="0.2386" stroke-miterlimit="3.8637" d="M15.94,60.546
		c0.416-0.479-0.114-3.372-1.131-2.238c-0.798,0.89-0.699,1.231-0.699,1.231s-0.117-0.335-1.251-0.516
		c-1.442-0.226-0.233,2.416,0.367,2.519"/>
	<path fill="none" stroke="#000000" stroke-width="0.2386" stroke-miterlimit="3.8637" d="M15.614,64.145
		c2.221-1.153,1.085-4.343-0.064-3.486c-0.936,0.698-0.7,1.232-0.7,1.232s-0.11-0.513-1.25-0.516
		C12.133,61.373,13.453,64.797,15.614,64.145L15.614,64.145z"/>
	
		<line fill="none" stroke="#000000" stroke-width="0.2386" stroke-miterlimit="3.8637" x1="16.015" y1="63.895" x2="17.697" y2="68.808"/>
	
		<line fill="none" stroke="#000000" stroke-width="0.2386" stroke-miterlimit="3.8637" x1="15.144" y1="64.258" x2="16.51" y2="68.603"/>
	<path fill="none" stroke="#000000" stroke-width="0.2386" stroke-miterlimit="3.8637" d="M18.257,50.669
		c0,0-0.609-0.542-0.48-1.085c0.202-0.851,0.443-1.02,0.769-1.929c0.613,0.748,0.892,0.896,1.291,1.669
		c0.255,0.496-0.207,1.172-0.207,1.172"/>
	<path fill="none" stroke="#000000" stroke-width="0.2386" stroke-miterlimit="3.8637" d="M20.684,52.715
		c0.52-0.375,0.538-3.322-0.719-2.441c-0.987,0.691-0.955,1.049-0.955,1.049s-0.053-0.355-1.176-0.784
		c-1.432-0.543-0.709,2.311-0.116,2.547"/>
	<path fill="none" stroke="#000000" stroke-width="0.2386" stroke-miterlimit="3.8637" d="M21.004,55.36
		c0.519-0.374,0.538-3.32-0.72-2.441c-0.986,0.693-0.954,1.051-0.954,1.051s-0.053-0.357-1.176-0.784
		c-1.43-0.544-0.709,2.309-0.115,2.546"/>
	<path fill="none" stroke="#000000" stroke-width="0.2386" stroke-miterlimit="3.8637" d="M21.324,58.006
		c0.52-0.374,0.539-3.323-0.718-2.439c-0.988,0.69-0.955,1.05-0.955,1.05s-0.053-0.357-1.177-0.784
		c-1.43-0.545-0.709,2.31-0.115,2.545"/>
	<path fill="none" stroke="#000000" stroke-width="0.2386" stroke-miterlimit="3.8637" d="M20.29,61.458
		c2.493-0.632,1.954-4.007,0.614-3.428c-1.093,0.473-0.955,1.05-0.955,1.05s-0.014-0.526-1.177-0.781
		C17.275,57.969,17.957,61.612,20.29,61.458L20.29,61.458z"/>
	
		<line fill="none" stroke="#000000" stroke-width="0.2386" stroke-linecap="round" stroke-miterlimit="3.8637" x1="20.738" y1="61.319" x2="21.693" y2="69.098"/>
	
		<line fill="none" stroke="#000000" stroke-width="0.2386" stroke-linecap="round" stroke-miterlimit="3.8637" x1="19.707" y1="61.426" x2="20.631" y2="69.005"/>
	<path fill="none" stroke="#000000" stroke-width="0.2386" stroke-miterlimit="3.8637" d="M25.639,49.947
		c0,0-0.589-0.614-0.375-1.138c0.334-0.818,0.619-0.955,1.096-1.821c0.566,0.817,0.85,0.997,1.179,1.816
		c0.21,0.522-0.383,1.138-0.383,1.138"/>
	<path fill="none" stroke="#000000" stroke-width="0.2386" stroke-miterlimit="3.8637" d="M28.019,52.24
		c0.615-0.311,1.034-3.236-0.452-2.514c-1.168,0.568-1.181,0.927-1.181,0.927s-0.011-0.359-1.175-0.921
		c-1.482-0.714-1.081,2.211-0.468,2.517"/>
	<path fill="none" stroke="#000000" stroke-width="0.2386" stroke-miterlimit="3.8637" d="M28.011,54.909
		c0.615-0.31,1.033-3.236-0.453-2.512c-1.168,0.566-1.181,0.926-1.181,0.926s-0.01-0.359-1.174-0.921
		c-1.482-0.715-1.082,2.209-0.469,2.516"/>
	<path fill="none" stroke="#000000" stroke-width="0.2386" stroke-miterlimit="3.8637" d="M28.002,57.579
		c0.615-0.311,1.034-3.235-0.453-2.514c-1.167,0.566-1.18,0.926-1.18,0.926s-0.01-0.359-1.175-0.92
		c-1.481-0.714-1.081,2.21-0.469,2.517"/>
	<path fill="none" stroke="#000000" stroke-width="0.2386" stroke-miterlimit="3.8637" d="M26.413,60.883
		c2.796-0.327,2.666-3.746,1.129-3.331c-1.252,0.337-1.181,0.927-1.181,0.927s0.057-0.527-1.174-0.924
		C23.603,57.048,23.854,60.752,26.413,60.883L26.413,60.883z"/>
	
		<line fill="none" stroke="#000000" stroke-width="0.2386" stroke-linecap="round" stroke-miterlimit="3.8637" x1="26.922" y1="60.782" x2="26.909" y2="69.079"/>
	
		<line fill="none" stroke="#000000" stroke-width="0.2386" stroke-linecap="round" stroke-miterlimit="3.8637" x1="25.784" y1="60.782" x2="25.772" y2="69.188"/>
	<path fill="none" stroke="#000000" stroke-width="0.2386" stroke-miterlimit="3.8637" d="M41.175,54.045c0,0,0.671-0.4,0.652-0.958
		c-0.031-0.875-0.225-1.091-0.36-2.054c-0.715,0.601-1.005,0.688-1.523,1.359c-0.332,0.431-0.024,1.191-0.024,1.191"/>
	<path fill="none" stroke="#000000" stroke-width="0.2386" stroke-miterlimit="3.8637" d="M38.5,55.498
		c-0.417-0.479,0.115-3.368,1.13-2.236c0.798,0.889,0.7,1.232,0.7,1.232s0.116-0.335,1.25-0.515
		c1.443-0.226,0.233,2.416-0.367,2.518"/>
	<path fill="none" stroke="#000000" stroke-width="0.2386" stroke-miterlimit="3.8637" d="M37.706,58.02
		c-0.417-0.478,0.115-3.367,1.13-2.235c0.798,0.888,0.701,1.231,0.701,1.231s0.115-0.337,1.25-0.516
		c1.443-0.226,0.233,2.415-0.368,2.519"/>
	<path fill="none" stroke="#000000" stroke-width="0.2386" stroke-miterlimit="3.8637" d="M36.912,60.546
		c-0.416-0.479,0.114-3.372,1.129-2.238c0.799,0.89,0.701,1.231,0.701,1.231s0.116-0.335,1.251-0.516
		c1.442-0.226,0.233,2.416-0.368,2.519"/>
	<path fill="none" stroke="#000000" stroke-width="0.2386" stroke-miterlimit="3.8637" d="M37.238,64.145
		c-2.221-1.153-1.086-4.343,0.064-3.486c0.937,0.698,0.7,1.232,0.7,1.232s0.111-0.513,1.25-0.516
		C40.72,61.373,39.399,64.797,37.238,64.145L37.238,64.145z"/>
	
		<line fill="none" stroke="#000000" stroke-width="0.2386" stroke-miterlimit="3.8637" x1="36.842" y1="63.895" x2="35.293" y2="68.649"/>
	
		<line fill="none" stroke="#000000" stroke-width="0.2386" stroke-miterlimit="3.8637" x1="37.68" y1="64.261" x2="36.388" y2="68.456"/>
	<path fill="none" stroke="#000000" stroke-width="0.2386" stroke-miterlimit="3.8637" d="M34.631,50.669
		c0,0,0.608-0.542,0.479-1.085c-0.202-0.851-0.443-1.02-0.768-1.929c-0.615,0.748-0.893,0.896-1.292,1.669
		c-0.255,0.496,0.207,1.172,0.207,1.172"/>
	<path fill="none" stroke="#000000" stroke-width="0.2386" stroke-miterlimit="3.8637" d="M32.168,52.715
		c-0.52-0.375-0.538-3.322,0.72-2.441c0.987,0.691,0.955,1.049,0.955,1.049s0.053-0.355,1.176-0.784
		c1.431-0.543,0.709,2.311,0.116,2.547"/>
	<path fill="none" stroke="#000000" stroke-width="0.2386" stroke-miterlimit="3.8637" d="M31.848,55.36
		c-0.519-0.374-0.538-3.32,0.719-2.441c0.989,0.693,0.955,1.051,0.955,1.051s0.054-0.357,1.176-0.784
		c1.431-0.544,0.709,2.309,0.117,2.546"/>
	<path fill="none" stroke="#000000" stroke-width="0.2386" stroke-miterlimit="3.8637" d="M31.528,58.006
		c-0.519-0.374-0.539-3.323,0.718-2.439c0.988,0.69,0.955,1.05,0.955,1.05s0.054-0.357,1.177-0.784
		c1.43-0.545,0.709,2.31,0.115,2.545"/>
	<path fill="none" stroke="#000000" stroke-width="0.2386" stroke-miterlimit="3.8637" d="M32.562,61.458
		c-2.492-0.632-1.955-4.007-0.614-3.428c1.092,0.473,0.955,1.05,0.955,1.05s0.013-0.526,1.177-0.781
		C35.577,57.969,34.895,61.612,32.562,61.458L32.562,61.458z"/>
	
		<line fill="none" stroke="#000000" stroke-width="0.2386" stroke-linecap="round" stroke-miterlimit="3.8637" x1="32.076" y1="61.297" x2="31.174" y2="69.049"/>
	
		<line fill="none" stroke="#000000" stroke-width="0.2386" stroke-linecap="round" stroke-miterlimit="3.8637" x1="33.098" y1="61.42" x2="32.182" y2="69.001"/>
	<path fill="none" stroke="#000000" stroke-width="0.2386" stroke-linecap="round" stroke-miterlimit="3.8637" d="M41.352,68.705
		c0,1.312-6.961,3.708-15.336,3.708c-8.373,0-15.407-2.376-15.407-3.688"/>
	<path fill="none" stroke="#000000" stroke-width="0.2386" stroke-linecap="round" stroke-miterlimit="3.8637" d="M40.836,72.291
		c-1.002,1.355-7.172,3.4-14.82,3.4c-8.373,0-14.94-2.412-14.94-3.723"/>
	<path fill="none" stroke="#000000" stroke-width="0.2386" stroke-linecap="round" stroke-miterlimit="3.8637" d="M40.034,75.937
		c-0.854,1.299-6.335,3.033-14.019,3.033c-8.373,0-14.124-2.274-14.124-3.587"/>
	<path fill="none" stroke="#000000" stroke-width="0.2386" stroke-linecap="round" stroke-miterlimit="3.8637" d="M39.119,78.99
		c-0.879,1.34-5.582,3.258-13.103,3.258c-7.18,0-11.531-1.668-12.626-2.969"/>
	<path fill="none" stroke="#000000" stroke-width="0.2386" stroke-linecap="round" stroke-miterlimit="3.8637" d="M22.456,72.333
		c0.369,11.639,1.594,12.495,2.741,12.537"/>
	<path fill="none" stroke="#000000" stroke-width="0.2386" stroke-linecap="round" stroke-miterlimit="3.8637" d="M17.367,71.582
		c0.755,10.254,1.954,12.327,4.679,13.115"/>
	<path fill="none" stroke="#000000" stroke-width="0.2386" stroke-linecap="round" stroke-miterlimit="3.8637" d="M13.159,70.444
		c0.943,5.121,1.793,11.354,4.867,13.36"/>
	<path fill="none" stroke="#000000" stroke-width="0.2386" stroke-linecap="round" stroke-miterlimit="3.8637" d="M29.112,72.313
		c0.123,12.088-1.129,12.475-2.358,12.558"/>
	<path fill="none" stroke="#000000" stroke-width="0.2386" stroke-linecap="round" stroke-miterlimit="3.8637" d="M34.867,71.54
		c-0.779,10.571-1.655,12.264-5.261,13.206"/>
	<path fill="none" stroke="#000000" stroke-width="0.2386" stroke-linecap="round" stroke-miterlimit="3.8637" d="M39.14,70.315
		c-0.942,9.302-2.879,12.833-5.46,13.817"/>
	<path fill="none" stroke="#000000" stroke-width="0.2386" stroke-miterlimit="3.8637" d="M10.648,66.306
		c0,0-2.253-2.663-2.253-4.793c0-2.132,3.524-1.637,3.934-1.394"/>
	<path fill="none" stroke="#000000" stroke-width="0.2386" stroke-miterlimit="3.8637" d="M12.125,65.898
		c0,0-2.828-3.893-2.007-4.222c0.819-0.328,1.064-0.492,2.868,0.083"/>
	<path fill="none" stroke="#000000" stroke-width="0.2386" stroke-miterlimit="3.8637" d="M39.908,65.978
		c0,0,2.588-3.638,2.008-4.302c-0.287-0.328-1.025-0.532-2.049-0.285"/>
	<path fill="none" stroke="#000000" stroke-width="0.2386" stroke-linecap="round" stroke-miterlimit="3.8637" d="M41.25,66.286
		c0.195,0.154,0.297,0.312,0.297,0.473c-0.778,8.81-2.76,14.437-4.508,15.737c-1.599,1.186-3.564,2.375-11.023,2.375
		c-8.373,0-10.06-1.822-11.474-3.688c-1.024-1.353-3.62-5.902-4.057-14.467c-0.006-0.133,0.035-0.261,0.123-0.381"/>
	<path fill="none" stroke="#000000" stroke-width="0.1193" stroke-miterlimit="3.8637" d="M10.957,53.189
		c-0.23-0.452-0.933-1.69-2.204-1.549"/>
	<path fill="none" stroke="#000000" stroke-width="0.1193" stroke-miterlimit="3.8637" d="M11.321,51.452
		c0,0-0.548-1.896-1.897-2.009"/>
	<path fill="none" stroke="#000000" stroke-width="0.1193" stroke-miterlimit="3.8637" d="M11.351,51.076
		c0,0-0.66-0.959-0.062-2.172"/>
	<path fill="none" stroke="#000000" stroke-width="0.1193" stroke-miterlimit="3.8637" d="M11.035,53.938
		c0,0-0.062-0.506-1.37-0.851"/>
	<path fill="none" stroke="#000000" stroke-width="0.1193" stroke-miterlimit="3.8637" d="M12.833,52.369
		c0,0-0.381-1.117,0.594-2.124"/>
	<path fill="none" stroke="#000000" stroke-width="0.1193" stroke-miterlimit="3.8637" d="M17.837,49.782c0,0-0.72-1.819-2.073-1.79
		"/>
	<path fill="none" stroke="#000000" stroke-width="0.1193" stroke-miterlimit="3.8637" d="M18.497,47.925
		c0,0-0.381-1.938-1.714-2.166"/>
	<path fill="none" stroke="#000000" stroke-width="0.1193" stroke-miterlimit="3.8637" d="M18.559,47.553
		c0,0-0.573-1.013,0.129-2.168"/>
	<path fill="none" stroke="#000000" stroke-width="0.1193" stroke-miterlimit="3.8637" d="M17.718,50.556
		c0,0-0.018-0.51-1.291-0.966"/>
	<path fill="none" stroke="#000000" stroke-width="0.1193" stroke-miterlimit="3.8637" d="M19.708,49.121
		c0,0-0.283-1.146,0.776-2.064"/>
	<path fill="none" stroke="#000000" stroke-width="0.1193" stroke-miterlimit="3.8637" d="M25.318,48.895
		c0,0-0.326-1.927-1.655-2.18"/>
	<path fill="none" stroke="#000000" stroke-width="0.1193" stroke-miterlimit="3.8637" d="M26.279,47.228
		c0,0,0.031-1.975-1.226-2.475"/>
	<path fill="none" stroke="#000000" stroke-width="0.1193" stroke-miterlimit="3.8637" d="M26.418,46.876
		c0,0-0.35-1.108,0.577-2.095"/>
	<path fill="none" stroke="#000000" stroke-width="0.1193" stroke-miterlimit="3.8637" d="M25.062,49.528
		c0,0,0.089-0.504-1.062-1.215"/>
	<path fill="none" stroke="#000000" stroke-width="0.1193" stroke-miterlimit="3.8637" d="M27.309,48.439
		c0,0-0.039-1.179,1.187-1.856"/>
	<path fill="none" stroke="#000000" stroke-width="0.1193" stroke-miterlimit="3.8637" d="M41.724,53.368
		c0,0,0.978-1.634,2.308-1.392"/>
	<path fill="none" stroke="#000000" stroke-width="0.1193" stroke-miterlimit="3.8637" d="M41.477,51.377
		c0,0,0.678-1.855,2.031-1.871"/>
	<path fill="none" stroke="#000000" stroke-width="0.1193" stroke-miterlimit="3.8637" d="M41.473,50.999
		c0,0,0.725-0.909,0.212-2.162"/>
	<path fill="none" stroke="#000000" stroke-width="0.1193" stroke-miterlimit="3.8637" d="M41.738,54.05
		c0,0,0.097-0.502,1.426-0.754"/>
	<path fill="none" stroke="#000000" stroke-width="0.1193" stroke-miterlimit="3.8637" d="M40.015,52.352
		c0,0,0.459-1.087-0.445-2.159"/>
	<path fill="none" stroke="#000000" stroke-width="0.1193" stroke-miterlimit="3.8637" d="M35.091,49.826
		c0,0,0.493-1.891,1.839-2.027"/>
	<path fill="none" stroke="#000000" stroke-width="0.1193" stroke-miterlimit="3.8637" d="M34.478,48.084
		c0,0,0.141-1.97,1.437-2.362"/>
	<path fill="none" stroke="#000000" stroke-width="0.1193" stroke-miterlimit="3.8637" d="M34.37,47.72c0,0,0.447-1.074-0.392-2.136
		"/>
	<path fill="none" stroke="#000000" stroke-width="0.1193" stroke-miterlimit="3.8637" d="M35.291,50.478
		c0,0-0.044-0.508,1.165-1.117"/>
	<path fill="none" stroke="#000000" stroke-width="0.1193" stroke-miterlimit="3.8637" d="M33.083,49.293
		c0.038-0.314,0.197-1.134-1.022-1.951"/>
	<path fill="none" stroke="#000000" stroke-width="0.2386" stroke-miterlimit="3.8637" d="M119.938,66.306
		c0,0,2.254-2.663,2.254-4.793c0-1.46-1.653-1.688-2.826-1.609"/>
	<path fill="none" stroke="#000000" stroke-width="0.2386" stroke-miterlimit="3.8637" d="M95.104,64.891
		c1.102-0.158,2.344-0.29,3.69-0.39"/>
	<path fill="none" stroke="#000000" stroke-width="0.2386" stroke-miterlimit="3.8637" d="M99.858,64.432
		c1.453-0.083,3.012-0.129,4.632-0.134"/>
	<path fill="none" stroke="#000000" stroke-width="0.2386" stroke-miterlimit="3.8637" d="M105.638,64.305
		c1.66,0.018,3.35,0.088,4.814,0.192"/>
	<path fill="none" stroke="#000000" stroke-width="0.2386" stroke-linecap="round" stroke-miterlimit="3.8637" d="M116.13,65.227
		c1.998,0.419,3.195,0.953,3.195,1.531c0,1.356-6.568,2.459-14.671,2.459s-14.671-1.103-14.671-2.459
		c0-0.662,1.562-1.264,4.102-1.706"/>
	<path fill="none" stroke="#000000" stroke-width="0.2386" stroke-miterlimit="3.8637" d="M111.413,64.574
		c1.371,0.121,2.687,0.298,3.764,0.48"/>
	<path fill="none" stroke="#000000" stroke-width="0.2386" stroke-miterlimit="3.8637" d="M90.362,54.045
		c0,0-0.674-0.399-0.652-0.958c0.031-0.875,0.226-1.091,0.36-2.054c0.716,0.602,1.005,0.688,1.523,1.359
		c0.331,0.431,0.024,1.192,0.024,1.192"/>
	<path fill="none" stroke="#000000" stroke-width="0.2386" stroke-miterlimit="3.8637" d="M93.071,55.498
		c0.418-0.479-0.113-3.368-1.131-2.236c-0.798,0.889-0.699,1.232-0.699,1.232s-0.116-0.335-1.252-0.515
		c-1.441-0.226-0.23,2.416,0.368,2.518"/>
	<path fill="none" stroke="#000000" stroke-width="0.2386" stroke-miterlimit="3.8637" d="M93.866,58.02
		c0.416-0.478-0.115-3.367-1.131-2.235c-0.797,0.888-0.701,1.231-0.701,1.231s-0.115-0.337-1.249-0.516
		c-1.442-0.226-0.233,2.415,0.366,2.519"/>
	<path fill="none" stroke="#000000" stroke-width="0.2386" stroke-miterlimit="3.8637" d="M94.661,60.546
		c0.416-0.479-0.114-3.372-1.133-2.238c-0.797,0.89-0.698,1.231-0.698,1.231s-0.117-0.335-1.251-0.516
		c-1.443-0.226-0.231,2.416,0.366,2.519"/>
	<path fill="none" stroke="#000000" stroke-width="0.2386" stroke-miterlimit="3.8637" d="M94.335,64.145
		c2.219-1.153,1.084-4.343-0.064-3.486c-0.937,0.698-0.701,1.232-0.701,1.232s-0.109-0.513-1.25-0.516
		C90.854,61.373,92.174,64.797,94.335,64.145L94.335,64.145z"/>
	
		<line fill="none" stroke="#000000" stroke-width="0.2386" stroke-miterlimit="3.8637" x1="94.734" y1="63.895" x2="96.417" y2="68.808"/>
	
		<line fill="none" stroke="#000000" stroke-width="0.2386" stroke-miterlimit="3.8637" x1="93.862" y1="64.258" x2="95.229" y2="68.603"/>
	<path fill="none" stroke="#000000" stroke-width="0.2386" stroke-miterlimit="3.8637" d="M96.978,50.669
		c0,0-0.609-0.542-0.48-1.085c0.201-0.851,0.443-1.02,0.769-1.929c0.612,0.748,0.891,0.896,1.289,1.669
		c0.255,0.496-0.205,1.172-0.205,1.172"/>
	<path fill="none" stroke="#000000" stroke-width="0.2386" stroke-miterlimit="3.8637" d="M99.404,52.715
		c0.519-0.375,0.538-3.322-0.72-2.441c-0.986,0.691-0.955,1.049-0.955,1.049s-0.054-0.355-1.176-0.784
		c-1.43-0.543-0.707,2.311-0.114,2.547"/>
	<path fill="none" stroke="#000000" stroke-width="0.2386" stroke-miterlimit="3.8637" d="M99.724,55.36
		c0.519-0.374,0.539-3.32-0.719-2.441c-0.988,0.693-0.955,1.051-0.955,1.051s-0.052-0.357-1.177-0.784
		c-1.43-0.544-0.708,2.309-0.114,2.546"/>
	<path fill="none" stroke="#000000" stroke-width="0.2386" stroke-miterlimit="3.8637" d="M100.043,58.006
		c0.521-0.374,0.54-3.323-0.716-2.439c-0.989,0.69-0.955,1.05-0.955,1.05s-0.055-0.357-1.18-0.784
		c-1.427-0.545-0.707,2.31-0.114,2.545"/>
	<path fill="none" stroke="#000000" stroke-width="0.2386" stroke-miterlimit="3.8637" d="M99.011,61.458
		c2.492-0.632,1.953-4.007,0.615-3.428c-1.094,0.473-0.957,1.05-0.957,1.05s-0.014-0.526-1.176-0.781
		C95.994,57.969,96.679,61.612,99.011,61.458L99.011,61.458z"/>
	
		<line fill="none" stroke="#000000" stroke-width="0.2386" stroke-linecap="round" stroke-miterlimit="3.8637" x1="99.458" y1="61.319" x2="100.413" y2="69.098"/>
	
		<line fill="none" stroke="#000000" stroke-width="0.2386" stroke-linecap="round" stroke-miterlimit="3.8637" x1="98.427" y1="61.426" x2="99.352" y2="69.005"/>
	<path fill="none" stroke="#000000" stroke-width="0.2386" stroke-miterlimit="3.8637" d="M104.36,49.947
		c0,0-0.59-0.614-0.377-1.138c0.336-0.818,0.619-0.955,1.098-1.821c0.563,0.817,0.85,0.997,1.179,1.816
		c0.21,0.522-0.384,1.138-0.384,1.138"/>
	<path fill="none" stroke="#000000" stroke-width="0.2386" stroke-miterlimit="3.8637" d="M106.739,52.24
		c0.616-0.311,1.033-3.236-0.453-2.514c-1.169,0.568-1.181,0.927-1.181,0.927s-0.011-0.359-1.175-0.921
		c-1.482-0.714-1.081,2.211-0.467,2.517"/>
	<path fill="none" stroke="#000000" stroke-width="0.2386" stroke-miterlimit="3.8637" d="M106.731,54.909
		c0.615-0.31,1.031-3.236-0.453-2.512c-1.168,0.566-1.18,0.926-1.18,0.926s-0.012-0.359-1.176-0.921
		c-1.482-0.715-1.082,2.209-0.469,2.516"/>
	<path fill="none" stroke="#000000" stroke-width="0.2386" stroke-miterlimit="3.8637" d="M106.722,57.579
		c0.616-0.311,1.033-3.235-0.453-2.514c-1.168,0.566-1.18,0.926-1.18,0.926s-0.01-0.359-1.174-0.92
		c-1.482-0.714-1.082,2.21-0.468,2.517"/>
	<path fill="none" stroke="#000000" stroke-width="0.2386" stroke-miterlimit="3.8637" d="M105.132,60.883
		c2.798-0.327,2.668-3.746,1.131-3.331c-1.254,0.337-1.181,0.927-1.181,0.927s0.056-0.527-1.175-0.924
		C102.322,57.048,102.574,60.752,105.132,60.883L105.132,60.883z"/>
	
		<line fill="none" stroke="#000000" stroke-width="0.2386" stroke-linecap="round" stroke-miterlimit="3.8637" x1="105.644" y1="60.782" x2="105.628" y2="69.079"/>
	
		<line fill="none" stroke="#000000" stroke-width="0.2386" stroke-linecap="round" stroke-miterlimit="3.8637" x1="104.505" y1="60.782" x2="104.491" y2="69.188"/>
	<path fill="none" stroke="#000000" stroke-width="0.2386" stroke-miterlimit="3.8637" d="M119.895,54.045
		c0,0,0.673-0.4,0.651-0.958c-0.029-0.875-0.225-1.091-0.358-2.054c-0.716,0.601-1.005,0.688-1.524,1.359
		c-0.33,0.431-0.023,1.191-0.023,1.191"/>
	<path fill="none" stroke="#000000" stroke-width="0.2386" stroke-miterlimit="3.8637" d="M117.222,55.498
		c-0.418-0.479,0.113-3.368,1.129-2.236c0.799,0.889,0.701,1.232,0.701,1.232s0.116-0.335,1.25-0.515
		c1.443-0.226,0.232,2.416-0.366,2.518"/>
	<path fill="none" stroke="#000000" stroke-width="0.2386" stroke-miterlimit="3.8637" d="M116.427,58.02
		c-0.417-0.478,0.115-3.367,1.13-2.235c0.797,0.888,0.7,1.231,0.7,1.231s0.115-0.337,1.251-0.516
		c1.442-0.226,0.233,2.415-0.368,2.519"/>
	<path fill="none" stroke="#000000" stroke-width="0.2386" stroke-miterlimit="3.8637" d="M115.632,60.546
		c-0.416-0.479,0.114-3.372,1.131-2.238c0.797,0.89,0.7,1.231,0.7,1.231s0.116-0.335,1.251-0.516
		c1.441-0.226,0.232,2.416-0.367,2.519"/>
	<path fill="none" stroke="#000000" stroke-width="0.2386" stroke-miterlimit="3.8637" d="M115.958,64.145
		c-2.221-1.153-1.085-4.343,0.063-3.486c0.938,0.698,0.7,1.232,0.7,1.232s0.111-0.513,1.251-0.516
		C119.438,61.373,118.119,64.797,115.958,64.145L115.958,64.145z"/>
	
		<line fill="none" stroke="#000000" stroke-width="0.2386" stroke-miterlimit="3.8637" x1="115.563" y1="63.895" x2="114.013" y2="68.649"/>
	
		<line fill="none" stroke="#000000" stroke-width="0.2386" stroke-miterlimit="3.8637" x1="116.399" y1="64.261" x2="115.108" y2="68.456"/>
	<path fill="none" stroke="#000000" stroke-width="0.2386" stroke-miterlimit="3.8637" d="M113.351,50.669
		c0,0,0.608-0.542,0.479-1.085c-0.202-0.851-0.442-1.02-0.768-1.929c-0.614,0.748-0.892,0.896-1.29,1.669
		c-0.256,0.496,0.206,1.172,0.206,1.172"/>
	<path fill="none" stroke="#000000" stroke-width="0.2386" stroke-miterlimit="3.8637" d="M110.889,52.715
		c-0.521-0.375-0.539-3.322,0.72-2.441c0.986,0.691,0.953,1.049,0.953,1.049s0.055-0.355,1.178-0.784
		c1.428-0.543,0.707,2.311,0.114,2.547"/>
	<path fill="none" stroke="#000000" stroke-width="0.2386" stroke-miterlimit="3.8637" d="M110.567,55.36
		c-0.518-0.374-0.539-3.32,0.72-2.441c0.987,0.693,0.955,1.051,0.955,1.051s0.054-0.357,1.177-0.784
		c1.43-0.544,0.707,2.309,0.115,2.546"/>
	<path fill="none" stroke="#000000" stroke-width="0.2386" stroke-miterlimit="3.8637" d="M110.249,58.006
		c-0.52-0.374-0.541-3.323,0.717-2.439c0.989,0.69,0.955,1.05,0.955,1.05s0.053-0.357,1.178-0.784
		c1.429-0.545,0.708,2.31,0.115,2.545"/>
	<path fill="none" stroke="#000000" stroke-width="0.2386" stroke-miterlimit="3.8637" d="M111.281,61.458
		c-2.49-0.632-1.954-4.007-0.612-3.428c1.092,0.473,0.953,1.05,0.953,1.05s0.014-0.526,1.178-0.781
		C114.299,57.969,113.613,61.612,111.281,61.458L111.281,61.458z"/>
	
		<line fill="none" stroke="#000000" stroke-width="0.2386" stroke-linecap="round" stroke-miterlimit="3.8637" x1="110.796" y1="61.297" x2="109.894" y2="69.049"/>
	
		<line fill="none" stroke="#000000" stroke-width="0.2386" stroke-linecap="round" stroke-miterlimit="3.8637" x1="111.819" y1="61.42" x2="110.901" y2="69.001"/>
	<path fill="none" stroke="#000000" stroke-width="0.2386" stroke-linecap="round" stroke-miterlimit="3.8637" d="M120.071,68.705
		c0,1.312-6.961,3.708-15.336,3.708c-8.373,0-15.406-2.376-15.406-3.688"/>
	<path fill="none" stroke="#000000" stroke-width="0.2386" stroke-linecap="round" stroke-miterlimit="3.8637" d="M119.556,72.291
		c-1.002,1.355-7.172,3.4-14.82,3.4c-8.373,0-14.939-2.412-14.939-3.723"/>
	<path fill="none" stroke="#000000" stroke-width="0.2386" stroke-linecap="round" stroke-miterlimit="3.8637" d="M118.753,75.937
		c-0.852,1.299-6.334,3.033-14.018,3.033c-8.373,0-14.123-2.274-14.123-3.587"/>
	<path fill="none" stroke="#000000" stroke-width="0.2386" stroke-linecap="round" stroke-miterlimit="3.8637" d="M117.839,78.99
		c-0.88,1.34-5.582,3.258-13.104,3.258c-7.18,0-11.53-1.668-12.626-2.969"/>
	<path fill="none" stroke="#000000" stroke-width="0.2386" stroke-linecap="round" stroke-miterlimit="3.8637" d="M101.177,72.333
		c0.369,11.639,1.594,12.495,2.739,12.537"/>
	<path fill="none" stroke="#000000" stroke-width="0.2386" stroke-linecap="round" stroke-miterlimit="3.8637" d="M96.088,71.582
		c0.753,10.254,1.952,12.327,4.677,13.115"/>
	<path fill="none" stroke="#000000" stroke-width="0.2386" stroke-linecap="round" stroke-miterlimit="3.8637" d="M91.88,70.444
		c0.943,5.121,1.791,11.354,4.864,13.36"/>
	<path fill="none" stroke="#000000" stroke-width="0.2386" stroke-linecap="round" stroke-miterlimit="3.8637" d="M107.833,72.313
		c0.123,12.088-1.131,12.475-2.359,12.558"/>
	<path fill="none" stroke="#000000" stroke-width="0.2386" stroke-linecap="round" stroke-miterlimit="3.8637" d="M113.587,71.54
		c-0.777,10.571-1.654,12.264-5.26,13.206"/>
	<path fill="none" stroke="#000000" stroke-width="0.2386" stroke-linecap="round" stroke-miterlimit="3.8637" d="M117.86,70.315
		c-0.942,9.302-2.881,12.833-5.461,13.817"/>
	<path fill="none" stroke="#000000" stroke-width="0.2386" stroke-miterlimit="3.8637" d="M89.368,66.306
		c0,0-2.252-2.663-2.252-4.793c0-2.132,3.523-1.637,3.933-1.394"/>
	<path fill="none" stroke="#000000" stroke-width="0.2386" stroke-miterlimit="3.8637" d="M90.845,65.898
		c0,0-2.828-3.893-2.006-4.222c0.816-0.328,1.062-0.492,2.865,0.083"/>
	<path fill="none" stroke="#000000" stroke-width="0.2386" stroke-miterlimit="3.8637" d="M118.628,65.978
		c0,0,2.588-3.638,2.008-4.302c-0.287-0.328-1.023-0.532-2.048-0.285"/>
	<path fill="none" stroke="#000000" stroke-width="0.2386" stroke-linecap="round" stroke-miterlimit="3.8637" d="M119.97,66.286
		c0.195,0.154,0.299,0.312,0.299,0.473c-0.779,8.81-2.762,14.437-4.511,15.737c-1.597,1.186-3.563,2.375-11.022,2.375
		c-8.373,0-10.06-1.822-11.475-3.688c-1.022-1.353-3.618-5.902-4.055-14.467c-0.009-0.133,0.033-0.261,0.121-0.381"/>
	<path fill="none" stroke="#000000" stroke-width="0.1193" stroke-miterlimit="3.8637" d="M89.678,53.189
		c-0.231-0.452-0.935-1.69-2.203-1.549"/>
	<path fill="none" stroke="#000000" stroke-width="0.1193" stroke-miterlimit="3.8637" d="M90.041,51.452
		c0,0-0.548-1.896-1.896-2.009"/>
	<path fill="none" stroke="#000000" stroke-width="0.1193" stroke-miterlimit="3.8637" d="M90.07,51.076c0,0-0.657-0.959-0.06-2.172
		"/>
	<path fill="none" stroke="#000000" stroke-width="0.1193" stroke-miterlimit="3.8637" d="M89.755,53.938
		c0,0-0.061-0.506-1.369-0.851"/>
	<path fill="none" stroke="#000000" stroke-width="0.1193" stroke-miterlimit="3.8637" d="M91.554,52.369
		c0,0-0.381-1.117,0.594-2.124"/>
	<path fill="none" stroke="#000000" stroke-width="0.1193" stroke-miterlimit="3.8637" d="M96.557,49.782c0,0-0.72-1.819-2.071-1.79
		"/>
	<path fill="none" stroke="#000000" stroke-width="0.1193" stroke-miterlimit="3.8637" d="M97.218,47.925
		c0,0-0.381-1.938-1.716-2.166"/>
	<path fill="none" stroke="#000000" stroke-width="0.1193" stroke-miterlimit="3.8637" d="M97.278,47.553
		c0,0-0.574-1.013,0.129-2.168"/>
	<path fill="none" stroke="#000000" stroke-width="0.1193" stroke-miterlimit="3.8637" d="M96.439,50.556
		c0,0-0.019-0.51-1.292-0.966"/>
	<path fill="none" stroke="#000000" stroke-width="0.1193" stroke-miterlimit="3.8637" d="M98.427,49.121
		c0,0-0.281-1.146,0.778-2.064"/>
	<path fill="none" stroke="#000000" stroke-width="0.1193" stroke-miterlimit="3.8637" d="M104.039,48.895
		c0,0-0.327-1.927-1.655-2.18"/>
	<path fill="none" stroke="#000000" stroke-width="0.1193" stroke-miterlimit="3.8637" d="M105,47.228c0,0,0.03-1.975-1.226-2.475"
		/>
	<path fill="none" stroke="#000000" stroke-width="0.1193" stroke-miterlimit="3.8637" d="M105.138,46.876
		c0,0-0.349-1.108,0.577-2.095"/>
	<path fill="none" stroke="#000000" stroke-width="0.1193" stroke-miterlimit="3.8637" d="M103.782,49.528
		c0,0,0.088-0.504-1.062-1.215"/>
	<path fill="none" stroke="#000000" stroke-width="0.1193" stroke-miterlimit="3.8637" d="M106.028,48.439
		c0,0-0.039-1.179,1.187-1.856"/>
	<path fill="none" stroke="#000000" stroke-width="0.1193" stroke-miterlimit="3.8637" d="M120.445,53.368
		c0,0,0.978-1.634,2.308-1.392"/>
	<path fill="none" stroke="#000000" stroke-width="0.1193" stroke-miterlimit="3.8637" d="M120.196,51.377
		c0,0,0.678-1.855,2.031-1.871"/>
	<path fill="none" stroke="#000000" stroke-width="0.1193" stroke-miterlimit="3.8637" d="M120.192,50.999
		c0,0,0.725-0.909,0.212-2.162"/>
	<path fill="none" stroke="#000000" stroke-width="0.1193" stroke-miterlimit="3.8637" d="M120.458,54.05
		c0,0,0.098-0.502,1.426-0.754"/>
	<path fill="none" stroke="#000000" stroke-width="0.1193" stroke-miterlimit="3.8637" d="M118.735,52.352
		c0,0,0.459-1.087-0.446-2.159"/>
	<path fill="none" stroke="#000000" stroke-width="0.1193" stroke-miterlimit="3.8637" d="M113.812,49.826
		c0,0,0.492-1.891,1.838-2.027"/>
	<path fill="none" stroke="#000000" stroke-width="0.1193" stroke-miterlimit="3.8637" d="M113.197,48.084
		c0,0,0.141-1.97,1.437-2.362"/>
	<path fill="none" stroke="#000000" stroke-width="0.1193" stroke-miterlimit="3.8637" d="M113.091,47.72
		c0,0,0.445-1.074-0.392-2.136"/>
	<path fill="none" stroke="#000000" stroke-width="0.1193" stroke-miterlimit="3.8637" d="M114.012,50.478
		c0,0-0.046-0.508,1.165-1.117"/>
	<path fill="none" stroke="#000000" stroke-width="0.1193" stroke-miterlimit="3.8637" d="M111.804,49.293
		c0.039-0.314,0.197-1.134-1.021-1.951"/>
</g>
</svg>
